<?xml version="1.0" encoding="utf-8"?>
<!-- Generator: Adobe Illustrator 28.1.0, SVG Export Plug-In . SVG Version: 6.00 Build 0)  -->
<svg version="1.1" id="Layer_1" xmlns="http://www.w3.org/2000/svg" xmlns:xlink="http://www.w3.org/1999/xlink" x="0px" y="0px"
	 viewBox="0 0 590 42" style="enable-background:new 0 0 590 42;" xml:space="preserve">
<style type="text/css">
	.st0{fill:#FFFFFF;}
	.st1{fill:#A69871;}
	.st2{fill:none;}
</style>
<g>
	<path class="st0" d="M117.5,1h14.9c2.1,0,4,0.2,5.9,0.6c1.8,0.4,3.4,1,4.8,2c1.4,0.9,2.5,2.2,3.3,3.7c0.8,1.6,1.2,3.5,1.2,5.9
		s-0.4,4.3-1.1,5.9c-0.8,1.6-1.8,2.8-3.1,3.8c-1.3,0.9-2.9,1.6-4.7,2s-3.8,0.6-5.9,0.6h-6.4V41h-8.8L117.5,1L117.5,1z M126.3,18h5.9
		c0.8,0,1.6-0.1,2.3-0.2s1.4-0.4,2-0.8s1.1-0.9,1.4-1.5s0.5-1.4,0.5-2.3c0-1-0.2-1.8-0.7-2.5c-0.5-0.6-1.1-1.1-1.8-1.4
		c-0.7-0.3-1.6-0.6-2.5-0.6c-0.9-0.1-1.8-0.1-2.6-0.1h-4.5L126.3,18L126.3,18z"/>
	<path class="st0" d="M153,1h8.8v14.9h17.1V1h8.8v40h-8.8V23.7h-17.1V41H153V1z"/>
	<path class="st0" d="M193.7,21c0-3.2,0.5-6.1,1.6-8.7s2.6-4.8,4.5-6.6s4.2-3.2,6.8-4.2s5.5-1.5,8.6-1.5s6,0.5,8.6,1.5
		s4.9,2.4,6.8,4.2s3.4,4,4.5,6.6s1.6,5.5,1.6,8.7s-0.5,6.1-1.6,8.7s-2.6,4.8-4.5,6.6s-4.2,3.2-6.8,4.2s-5.5,1.5-8.6,1.5
		s-6-0.5-8.6-1.5s-4.9-2.4-6.8-4.2c-1.9-1.8-3.4-4-4.5-6.6C194.3,27.1,193.7,24.2,193.7,21L193.7,21z M202.9,21
		c0,1.9,0.3,3.6,0.9,5.2c0.6,1.6,1.4,2.9,2.5,4.1c1.1,1.1,2.4,2,3.9,2.7s3.2,1,5.1,1s3.6-0.3,5.1-1c1.5-0.6,2.8-1.5,3.9-2.7
		s1.9-2.5,2.5-4.1s0.9-3.3,0.9-5.2s-0.3-3.6-0.9-5.1s-1.4-2.9-2.5-4.1s-2.4-2-3.9-2.7s-3.2-1-5.1-1s-3.6,0.3-5.1,1
		c-1.5,0.6-2.8,1.5-3.9,2.7s-1.9,2.5-2.5,4.1S202.9,19.1,202.9,21z"/>
	<path class="st0" d="M242.9,1h12l17,27.8h0.1V1h8.8v40h-11.5l-17.4-28.5h-0.1V41H243L242.9,1L242.9,1z"/>
	<path class="st0" d="M288.1,1h27.1v8.1h-18.4v7.4h17.3v8.1h-17.3v8.1h19.4V41H288L288.1,1L288.1,1z"/>
	<path class="st1" d="M357.6,34.7c-1.9,2.6-4.1,4.5-6.7,5.6s-5.2,1.7-8.2,1.7s-5.8-0.5-8.4-1.5s-4.7-2.5-6.5-4.3
		c-1.8-1.9-3.2-4.1-4.2-6.7s-1.5-5.4-1.5-8.4s0.5-5.9,1.5-8.4c1-2.6,2.4-4.8,4.2-6.6c1.8-1.9,4-3.3,6.5-4.4s5.3-1.6,8.4-1.6
		c2.7,0,5.2,0.5,7.6,1.4s4.4,2.6,6.2,4.8l-3,2.5c-1.2-1.9-2.8-3.2-4.8-4.1s-3.9-1.3-6-1.3c-2.6,0-4.9,0.5-7,1.4s-3.9,2.2-5.3,3.7
		s-2.6,3.4-3.4,5.6s-1.2,4.5-1.2,6.9s0.4,4.8,1.2,6.9c0.8,2.1,1.9,4,3.4,5.6c1.5,1.6,3.2,2.8,5.3,3.7c2.1,0.9,4.4,1.3,7,1.3
		c1,0,2.1-0.1,3.2-0.4c1.1-0.2,2.1-0.6,3.2-1.1c1-0.5,2-1.2,3-1.9c0.9-0.8,1.8-1.7,2.5-2.8L357.6,34.7L357.6,34.7z"/>
	<path class="st1" d="M376.7,1h3.8l16.8,40h-4.2l-4.4-10.6h-21.2L363.1,41h-3.9L376.7,1z M378.4,5.1L369.1,27h18.4L378.4,5.1
		L378.4,5.1z"/>
	<path class="st1" d="M436.1,38.4c-2.3,1.3-4.8,2.2-7.2,2.8c-2.5,0.5-5,0.8-7.6,0.8c-3,0-5.8-0.5-8.4-1.5s-4.7-2.5-6.5-4.3
		c-1.8-1.9-3.2-4.1-4.2-6.7s-1.5-5.4-1.5-8.4s0.5-5.9,1.5-8.4c1-2.6,2.4-4.8,4.2-6.6c1.8-1.9,4-3.3,6.5-4.4s5.3-1.6,8.4-1.6
		c6,0,10.7,1.8,14.4,5.5L433,8.4c-0.6-0.7-1.4-1.4-2.2-2s-1.8-1.2-2.9-1.6s-2.1-0.8-3.2-1c-1.1-0.2-2.2-0.4-3.3-0.4
		c-2.6,0-4.9,0.5-7,1.4s-3.9,2.2-5.3,3.7s-2.6,3.4-3.4,5.6s-1.2,4.5-1.2,6.9s0.4,4.8,1.2,6.9c0.8,2.1,1.9,4,3.4,5.6
		c1.5,1.6,3.2,2.8,5.3,3.7c2.1,0.9,4.4,1.3,7,1.3c2.1,0,4.2-0.2,6-0.5s3.6-1,5.1-1.9V22.8h-9.6v-3.4h13.3L436.1,38.4L436.1,38.4z"/>
	<path class="st1" d="M445.9,1h24.4v3.4h-20.7v14.2H469V22h-19.4v15.6h21.6V41h-25.4L445.9,1L445.9,1z"/>
</g>
<rect y="0" class="st2" width="590" height="42"/>
</svg>
