<?xml version="1.0" encoding="utf-8"?>
<!-- Generator: Adobe Illustrator 27.8.1, SVG Export Plug-In . SVG Version: 6.00 Build 0)  -->
<svg version="1.1" id="Layer_3" xmlns="http://www.w3.org/2000/svg" xmlns:xlink="http://www.w3.org/1999/xlink" x="0px" y="0px"
	 viewBox="0 0 590 77" style="enable-background:new 0 0 590 77;" xml:space="preserve">
<style type="text/css">
	.st0{fill:#AD9970;}
</style>
<g>
	<path d="M201.7,1.9h24.2c5.9,0,11.4,0.7,16.7,2c5.3,1.3,9.9,3.4,13.8,6.4c3.9,2.9,7.1,6.7,9.4,11.4c2.3,4.7,3.5,10.4,3.5,17.1
		c0,5.9-1.1,11.2-3.4,15.7c-2.2,4.5-5.3,8.3-9.1,11.4c-3.8,3.1-8.2,5.4-13.1,7c-5,1.6-10.2,2.4-15.6,2.4h-26.4L201.7,1.9L201.7,1.9z
		 M217.8,60.2h8.4c3.7,0,7.2-0.4,10.4-1.1c3.2-0.8,6-2,8.3-3.8c2.3-1.8,4.2-4.1,5.5-6.9c1.3-2.9,2-6.4,2-10.5c0-3.6-0.7-6.7-2-9.4
		c-1.3-2.7-3.2-4.8-5.4-6.6c-2.3-1.7-5-3-8-3.9c-3.1-0.9-6.3-1.3-9.7-1.3h-9.5L217.8,60.2L217.8,60.2z"/>
	<path d="M316.4,19.8c-1.3-1.7-3.1-2.9-5.3-3.7c-2.2-0.8-4.4-1.2-6.4-1.2c-1.2,0-2.4,0.1-3.6,0.4s-2.4,0.7-3.5,1.3
		c-1.1,0.6-2,1.4-2.7,2.3c-0.7,1-1,2.1-1,3.5c0,2.2,0.8,3.9,2.5,5.1c1.7,1.2,3.7,2.2,6.3,3c2.5,0.8,5.2,1.7,8.1,2.5
		c2.9,0.8,5.6,2,8.1,3.5c2.5,1.5,4.6,3.6,6.3,6.1c1.7,2.6,2.5,6,2.5,10.2s-0.8,7.6-2.3,10.7s-3.6,5.6-6.2,7.6c-2.6,2-5.6,3.5-9,4.5
		c-3.4,1-7,1.4-10.8,1.4c-4.8,0-9.2-0.7-13.2-2.2c-4.1-1.5-7.9-3.8-11.4-7l11.5-12.6c1.7,2.2,3.7,3.9,6.3,5.1
		c2.5,1.2,5.1,1.8,7.8,1.8c1.3,0,2.6-0.2,4-0.5c1.3-0.3,2.6-0.8,3.6-1.4c1.1-0.6,1.9-1.4,2.6-2.4s1-2.1,1-3.4c0-2.2-0.8-3.9-2.5-5.2
		c-1.7-1.3-3.8-2.4-6.4-3.3c-2.6-0.9-5.3-1.8-8.3-2.7c-3-0.9-5.7-2.1-8.3-3.6s-4.7-3.5-6.4-6c-1.7-2.5-2.5-5.8-2.5-9.8
		s0.8-7.4,2.3-10.3c1.6-3,3.6-5.5,6.2-7.4c2.6-2,5.6-3.5,9-4.5C298,0.5,301.4,0,305,0c4.1,0,8.1,0.6,12,1.8
		c3.9,1.2,7.3,3.1,10.4,5.9L316.4,19.8L316.4,19.8z"/>
	<path class="st0" d="M337.2,58.7l28.5-25.6c1.4-1.3,2.9-2.8,4.3-4.4s2.2-3.6,2.2-5.8c0-2.5-0.9-4.4-2.7-5.8
		c-1.8-1.4-3.9-2.1-6.3-2.1c-2.9,0-5.2,0.9-6.8,2.7c-1.6,1.8-2.5,4-2.7,6.6l-15.5-1.1c0.2-3.8,1-7.1,2.4-9.9s3.2-5.1,5.5-7
		c2.3-1.9,5-3.3,8-4.2s6.4-1.4,10-1.4c3.3,0,6.4,0.5,9.3,1.4s5.4,2.3,7.6,4.1c2.1,1.8,3.8,4.1,5,6.9c1.2,2.8,1.8,6,1.8,9.6
		c0,2.3-0.2,4.5-0.7,6.4c-0.5,1.9-1.2,3.6-2,5.2c-0.9,1.6-1.9,3-3.1,4.3c-1.2,1.3-2.5,2.6-3.8,3.8l-22.2,19.1h32.5v13.7h-51.1
		C337.2,75.1,337.2,58.7,337.2,58.7z"/>
</g>
</svg>
