<?xml version="1.0" encoding="UTF-8"?><svg id="Layer_1" xmlns="http://www.w3.org/2000/svg" viewBox="0 0 590 58"><defs><style>.cls-1{fill:none;}.cls-2{fill:#fff;}.cls-3{fill:#ad9970;}</style></defs><rect class="cls-3" x="383.02" width="127.79" height="58" rx="10.69" ry="10.69"/><path class="cls-2" d="m393.12,9.92h14.17c1.98,0,3.84.18,5.6.54,1.76.36,3.29.98,4.61,1.86,1.31.88,2.35,2.07,3.13,3.56.77,1.49,1.16,3.37,1.16,5.63s-.36,4.1-1.08,5.6c-.72,1.51-1.71,2.71-2.96,3.61-1.26.9-2.75,1.54-4.47,1.91s-3.59.57-5.6.57h-6.14v14.87h-8.41V9.92Zm8.41,16.17h5.6c.76,0,1.48-.07,2.18-.22.7-.14,1.33-.39,1.89-.73.56-.34,1.01-.81,1.35-1.4.34-.59.51-1.34.51-2.24,0-.97-.22-1.75-.67-2.34s-1.02-1.05-1.72-1.37-1.48-.53-2.34-.62c-.86-.09-1.69-.13-2.48-.13h-4.31v9.05Z"/><path class="cls-2" d="m427.07,9.92h14.76c1.94,0,3.78.19,5.52.57,1.74.38,3.27,1.01,4.58,1.89,1.31.88,2.35,2.07,3.13,3.56.77,1.49,1.16,3.35,1.16,5.58,0,2.69-.7,4.98-2.1,6.87s-3.45,3.08-6.14,3.58l9.7,16.11h-10.08l-7.98-15.25h-4.15v15.25h-8.41V9.92Zm8.41,15.79h4.96c.75,0,1.55-.03,2.4-.08.84-.05,1.61-.22,2.29-.48.68-.27,1.25-.69,1.7-1.27.45-.57.67-1.38.67-2.42,0-.97-.2-1.74-.59-2.32-.4-.57-.9-1.01-1.51-1.32-.61-.3-1.31-.51-2.1-.62-.79-.11-1.56-.16-2.32-.16h-5.5v8.68Z"/><path class="cls-2" d="m460.8,29c0-3.05.51-5.82,1.54-8.3,1.02-2.48,2.45-4.59,4.28-6.33,1.83-1.74,4-3.08,6.52-4.01,2.51-.93,5.26-1.4,8.25-1.4s5.73.47,8.25,1.4c2.51.93,4.69,2.27,6.52,4.01,1.83,1.74,3.26,3.85,4.29,6.33,1.02,2.48,1.54,5.25,1.54,8.3s-.51,5.82-1.54,8.3c-1.03,2.48-2.45,4.59-4.29,6.33-1.83,1.74-4.01,3.08-6.52,4.01-2.52.93-5.26,1.4-8.25,1.4s-5.73-.47-8.25-1.4c-2.51-.93-4.69-2.27-6.52-4.01-1.83-1.74-3.26-3.85-4.28-6.33-1.02-2.48-1.54-5.24-1.54-8.3Zm8.73,0c0,1.8.28,3.44.84,4.93.56,1.49,1.36,2.78,2.4,3.88,1.04,1.1,2.29,1.95,3.74,2.56,1.46.61,3.08.92,4.88.92s3.42-.3,4.88-.92c1.46-.61,2.7-1.46,3.74-2.56,1.04-1.1,1.84-2.39,2.4-3.88.56-1.49.84-3.13.84-4.93s-.28-3.39-.84-4.9-1.36-2.81-2.4-3.91c-1.04-1.1-2.29-1.95-3.74-2.56s-3.08-.92-4.88-.92-3.42.31-4.88.92-2.7,1.46-3.74,2.56c-1.04,1.1-1.84,2.4-2.4,3.91-.56,1.51-.84,3.14-.84,4.9Z"/><path d="m79.19,9.91h8.36v37.92h-8.36V9.91Z"/><path d="m95.15,9.91h11.35l16.12,26.35h.11V9.91h8.36v37.92h-10.93l-16.55-26.99h-.11v26.99h-8.36V9.91Z"/><path d="m146.14,17.31h-10.82v-7.39h29.99v7.39h-10.82v30.53h-8.36v-30.53Z"/><path d="m169.86,9.91h25.76v7.71h-17.41v7.07h16.44v7.71h-16.44v7.71h18.37v7.71h-26.72V9.91Z"/><path d="m203.28,9.91h14.67c1.93,0,3.76.19,5.49.56,1.73.38,3.25,1,4.55,1.87,1.3.88,2.34,2.05,3.11,3.53.77,1.48,1.15,3.33,1.15,5.54,0,2.68-.7,4.95-2.09,6.83-1.39,1.87-3.43,3.06-6.11,3.56l9.64,16.01h-10.02l-7.93-15.16h-4.12v15.16h-8.36V9.91Zm8.36,15.69h4.93c.75,0,1.54-.03,2.38-.08.84-.05,1.6-.21,2.28-.48.68-.27,1.24-.69,1.69-1.26.45-.57.67-1.37.67-2.41,0-.96-.2-1.73-.59-2.3-.39-.57-.89-1.01-1.5-1.31-.61-.3-1.3-.51-2.09-.62-.79-.11-1.55-.16-2.3-.16h-5.46v8.62Z"/><path d="m234.24,9.91h9.53l9.37,24.85h.11l9.53-24.85h8.94l-15.64,37.92h-6.69l-15.16-37.92Z"/><path d="m275.58,9.91h8.36v37.92h-8.36V9.91Z"/><path d="m291.87,9.91h25.76v7.71h-17.41v7.07h16.44v7.71h-16.44v7.71h18.37v7.71h-26.72V9.91Z"/><path d="m321.32,9.91h9.1l6.05,24.31h.11l7.93-24.31h7.77l7.87,24.96h.11l6.37-24.96h8.46l-11.09,37.92h-7.44l-8.35-26.24h-.11l-8.36,26.24h-7.18l-11.25-37.92Z"/><rect class="cls-1" width="590" height="58"/></svg>