<?xml version="1.0" encoding="utf-8"?>
<!-- Generator: Adobe Illustrator 27.8.0, SVG Export Plug-In . SVG Version: 6.00 Build 0)  -->
<svg version="1.1" id="Layer_1" xmlns="http://www.w3.org/2000/svg" xmlns:xlink="http://www.w3.org/1999/xlink" x="0px" y="0px"
	 viewBox="0 0 590 58" style="enable-background:new 0 0 590 58;" xml:space="preserve">
<style type="text/css">
	.st0{fill:#FFFFFF;}
	.st1{fill:none;}
</style>
<g id="NT1_LOGO">
	<g id="NT1_Logo">
		<polygon class="st0" points="182.6,0 182.6,40.3 182.4,40.3 157.7,0 140.4,0 140.4,58 153.1,58 153.1,16.7 153.3,16.7 178.6,58 
			195.3,58 195.3,11.3 211.5,11.3 211.5,58 224.3,58 224.3,11.3 240.9,11.3 240.9,0 		"/>
		<path class="st0" d="M261.7,13.8L250.1,24l-7-8L262,0h11.5v58h-11.8L261.7,13.8L261.7,13.8z"/>
		<g id="SIGNATURE">
			<path class="st0" d="M325,31c0.1,0.1,0.1,0.2,0,0.4c-0.1,0.2-0.3,0.4-0.6,0.6c-0.2,0.2-0.4,0.4-0.6,0.6c-0.4,0.4-0.8,0.8-1.2,1.2
				c-0.5,0.4-0.9,0.8-1.3,1.1c-0.2,0.2-0.5,0.4-0.7,0.5c-0.3,0.2-0.6,0.4-0.8,0.5c-0.1,0-0.2,0.1-0.2,0.1c-0.1,0-0.2,0.1-0.3,0.1
				c-0.1,0-0.1,0-0.1,0c0,0,0,0-0.1,0c0,0-0.1,0-0.1,0l0,0H319c0,0,0,0-0.1-0.1c0,0-0.1-0.1-0.2-0.1c0,0-0.1-0.1-0.1-0.2
				c-0.1-0.2-0.2-0.4-0.2-0.6c0-0.2,0-0.3,0-0.5c0.1-0.5,0.2-1,0.5-1.8c0.2-0.5,0.4-1,0.6-1.6c0.1-0.2,0.2-0.5,0.3-0.8l0.1-0.2
				c-0.2,0.1-0.2,0.1-0.3,0.1l-1.1,0.4l-2.1,0.8c-0.8,0.3-1.7,0.7-2.6,1c0.2,0.7,0.3,1.5,0.2,2.3c0,0.3-0.1,0.7-0.2,1.2
				c-0.1,0.5-0.3,0.9-0.4,1.2c-0.3,0.7-0.6,1.4-1.1,2.2c-0.4,0.7-0.9,1.3-1.4,1.9c-1,1.1-2.1,2.2-3.5,3.2c-2.3,1.7-5,3.2-8.1,4.5
				c-1.5,0.6-2.9,1.1-4.4,1.5c-0.8,0.2-1.6,0.4-2.2,0.6c-0.5,0.1-0.8,0.2-1.2,0.2c-0.4,0-0.8,0.1-1.2,0.1c-0.9,0-1.7-0.1-2.4-0.2
				c-0.5-0.1-0.9-0.3-1.2-0.5c-0.2-0.1-0.4-0.3-0.5-0.4c-0.2-0.2-0.4-0.4-0.5-0.6c-0.1-0.2-0.2-0.5-0.2-0.8c0-0.2,0-0.5,0.1-0.7
				c0.1-0.4,0.3-0.8,0.5-1.2c0.4-0.6,0.9-1.2,1.5-1.8c1-0.9,2.2-1.8,3.7-2.8c1.2-0.7,2.5-1.5,4-2.3c2.2-1.2,5-2.5,8.3-4
				c2.5-1.1,5.4-2.3,8.5-3.5c0,0,0.1,0,0.2,0c0.1,0,0.1-0.1,0.2-0.1c-0.2-0.5-0.5-1-0.9-1.5c-0.4-0.5-0.9-1-1.6-1.4
				c-1-0.6-2.3-1.3-4-1.9c-1-0.4-2.5-0.9-4.3-1.4c-2.3-0.7-3.8-1.1-4.4-1.3c-0.9-0.3-1.6-0.6-2.2-0.9c-0.4-0.2-0.8-0.4-1.1-0.6
				c-0.4-0.3-0.8-0.6-1-0.9c-0.2-0.2-0.3-0.5-0.4-0.7c-0.1-0.1-0.1-0.3-0.1-0.4c0-0.1,0-0.2,0-0.4c0-0.5,0.1-0.9,0.2-1.4
				c0.2-0.7,0.7-1.4,1.3-2.1c0.5-0.5,1-1.1,1.7-1.7c0.5-0.5,1.1-1,1.9-1.5c1.1-0.9,2.4-1.7,3.9-2.6c1.3-0.8,2.6-1.5,4-2.2
				c1.4-0.7,2.8-1.3,4.2-1.9c1.5-0.7,3-1.2,4.3-1.6c1.7-0.5,3.2-0.9,4.6-1c1-0.1,1.8-0.1,2.5,0c0.2,0.1,0.5,0.1,0.7,0.2
				c0.2,0.1,0.5,0.3,0.6,0.4c0.2,0.2,0.3,0.5,0.4,0.7c0,0.2,0.1,0.5,0,0.7c0,0.4-0.2,0.8-0.3,1.2c-0.1,0.3-0.3,0.7-0.5,1.1
				c0,0.1-0.2,0.3-0.4,0.9c-0.2,0.5-0.4,0.9-0.5,1.2c-0.4,0.8-0.6,1.5-0.7,2.1c-0.2,0.8-0.2,1.4-0.1,2c0,0.2,0,0.3-0.1,0.5
				c-0.1,0.1-0.2,0.2-0.4,0.3c-0.2,0-0.3,0-0.5-0.1s-0.2-0.2-0.3-0.4c0,0,0,0,0-0.1c-0.1-0.8,0-1.6,0.3-2.5c0.2-0.6,0.5-1.3,0.9-2.2
				c0.1-0.2,0.3-0.6,0.5-1.1c0.2-0.5,0.4-0.8,0.5-1c0.2-0.4,0.4-0.8,0.4-1c0.1-0.4,0.2-0.7,0.2-1c0-0.2,0-0.3,0-0.4
				c0-0.1-0.1-0.2-0.1-0.3c-0.1-0.1-0.4-0.2-0.7-0.3c-0.6-0.1-1.3-0.1-2.1,0.1c-0.6,0.1-1.4,0.2-2.1,0.4c-0.7,0.2-1.4,0.4-2.1,0.6
				c-2.7,0.9-5.5,2-8.3,3.5c-1.4,0.7-2.7,1.4-4,2.2c-1.4,0.8-2.6,1.7-3.8,2.5c-0.6,0.5-1.2,0.9-1.8,1.4c-0.6,0.6-1.1,1.1-1.5,1.6
				c-0.5,0.6-0.9,1.2-1.1,1.7c-0.1,0.3-0.2,0.6-0.1,0.8c0,0.1,0,0.3,0.1,0.4c0,0.1,0.1,0.2,0.2,0.3c0.2,0.2,0.4,0.4,0.7,0.6
				c0.3,0.2,0.6,0.4,0.9,0.5c0.5,0.3,1.2,0.5,2,0.8c0.6,0.2,2.1,0.7,4.4,1.3c1.8,0.5,3.3,1,4.4,1.4c1.8,0.6,3.2,1.3,4.3,2.1
				c0.7,0.5,1.4,1,1.9,1.6c0.5,0.6,0.9,1.2,1.1,1.8c0.9-0.4,1.8-0.7,2.6-1l2.1-0.8l1-0.4c0.5-0.2,0.9-0.4,1-0.4h0c0,0,0,0,0.1,0
				c0.2,0,0.3,0,0.5,0c0.2,0.1,0.3,0.2,0.3,0.4c0.1,0.2,0.1,0.3,0,0.5l0,0c0,0.1-0.1,0.2-0.2,0.4l-0.2,0.4c-0.1,0.3-0.3,0.5-0.4,0.7
				c-0.3,0.6-0.5,1.1-0.7,1.5c-0.2,0.6-0.4,1.1-0.5,1.5c0,0.1,0,0.2,0,0.3c0,0,0,0.1,0,0.1c0,0,0.1,0,0.1-0.1
				c0.2-0.1,0.4-0.2,0.6-0.4c0.2-0.1,0.5-0.3,0.7-0.5c0.4-0.3,0.8-0.6,1.3-1c0.5-0.4,0.9-0.7,1.3-1.1c0.2-0.2,0.4-0.4,0.6-0.6
				c0.2-0.2,0.4-0.4,0.6-0.6C324.8,30.9,324.9,30.9,325,31z M312.7,34.8c0.1-0.6,0-1.2-0.1-1.7c0,0-0.1,0-0.1,0.1
				c-0.1,0-0.2,0.1-0.2,0.1c-3.1,1.2-5.9,2.4-8.4,3.6c-3,1.3-5.8,2.7-8.2,4c-1.5,0.8-2.8,1.6-3.9,2.3c-0.7,0.5-1.3,0.9-1.9,1.3
				c-0.7,0.5-1.2,1-1.7,1.5c-0.6,0.6-1,1.1-1.3,1.7c-0.2,0.3-0.3,0.7-0.4,0.9c-0.1,0.3,0,0.5,0.1,0.8c0.1,0.2,0.3,0.4,0.6,0.5
				c0.2,0.1,0.6,0.2,0.9,0.3c0.6,0.1,1.3,0.2,2.1,0.1c0.4,0,0.7-0.1,1.1-0.1c0.3,0,0.7-0.1,1.1-0.2c0.6-0.1,1.3-0.3,2.1-0.5
				c1.4-0.4,2.8-0.9,4.2-1.5c3-1.2,5.7-2.7,7.9-4.3c1.3-1,2.4-2,3.2-3c0.5-0.6,0.9-1.1,1.3-1.8c0.4-0.7,0.7-1.3,0.9-1.9
				c0.1-0.3,0.2-0.6,0.3-1C312.6,35.5,312.6,35.1,312.7,34.8z M322,26.8c0.2,0,0.3,0,0.5,0.1s0.2,0.2,0.3,0.4c0,0.2,0,0.3-0.1,0.5
				c-0.2,0.3-0.4,0.6-0.5,0.9c-0.1,0.2-0.3,0.4-0.6,0.4c-0.1,0-0.2,0-0.3,0c-0.2-0.1-0.3-0.2-0.3-0.4s-0.1-0.3,0-0.5
				c0.2-0.4,0.4-0.7,0.6-1.1C321.7,27,321.8,26.9,322,26.8z"/>
			<path class="st0" d="M335.2,31.2c0,0.2-0.1,0.3-0.2,0.3h-0.1c-0.1,0-0.2,0.1-0.3,0.1c-0.1,0-0.3,0.1-0.4,0.2
				c-0.2,0.1-0.5,0.2-0.7,0.4c-0.5,0.3-1,0.6-1.5,0.9c-0.9,0.6-1.8,1.2-2.8,2c-0.1,0.1-0.2,0.2-0.4,0.3c-0.2,0.5-0.3,1-0.4,1.4
				c-0.4,1.3-0.8,2.4-1.1,3.3c-0.5,1.2-0.9,2.3-1.3,3.2c-0.3,0.6-0.5,1.1-0.8,1.6c-0.2,0.3-0.3,0.5-0.5,0.7c0,0,0,0.1-0.1,0.2
				c-0.1,0.1-0.1,0.2-0.2,0.2c-0.2,0.2-0.3,0.3-0.3,0.4c-0.3,0.3-0.6,0.5-0.9,0.6c-0.4,0.2-0.8,0.2-1.1,0.2c-0.5,0-0.8-0.2-1.1-0.6
				c-0.2-0.3-0.4-0.7-0.4-1.1v-0.2c0,0,0-0.1,0-0.1v-0.1l0.1-0.5l0.1-0.4c0-0.1,0-0.2,0.1-0.2l0.1-0.2c0,0,0-0.1,0.1-0.2
				c0-0.1,0.1-0.2,0.1-0.2l0.2-0.4l0.1-0.2l0.1-0.2l0.2-0.4c0.5-0.9,1.2-1.8,2-2.8c0.7-0.8,1.5-1.6,2.5-2.4c0.4-0.3,0.8-0.7,1.2-1
				c0.3-0.9,0.6-1.7,0.8-2.5c0-0.1,0.1-0.4,0.2-0.7c0.1-0.4,0.2-0.7,0.3-0.9c0-0.1,0.1-0.3,0.2-0.5c-0.1,0.1-0.2,0.2-0.3,0.3
				c-0.1,0.2-0.3,0.4-0.6,0.6c-0.3,0.3-0.4,0.5-0.5,0.6c-0.5,0.6-1,1-1.3,1.2c-0.2,0.1-0.3,0.2-0.4,0.3c-0.1,0-0.2,0.1-0.3,0.1
				c-0.1,0-0.3,0.1-0.4,0c-0.3,0-0.5-0.2-0.7-0.5c-0.1-0.2-0.1-0.4-0.1-0.7c0-0.3,0.1-0.6,0.3-1c0.1-0.2,0.2-0.5,0.4-0.8
				c0.3-0.5,0.7-1,1-1.5c0.2-0.2,0.4-0.5,0.6-0.6c0.3-0.2,0.5-0.4,0.8-0.6c0.2-0.1,0.4-0.2,0.5-0.2c0,0,0.1,0,0.2,0c0,0,0.1,0,0.1,0
				c0,0,0.1,0,0.1,0c0.2,0,0.3,0.1,0.5,0.2c0.1,0.1,0.2,0.2,0.2,0.4c0,0.1,0,0.2,0,0.4c0,0.2-0.1,0.4-0.2,0.5
				c-0.1,0.2-0.2,0.2-0.4,0.1c-0.1-0.1-0.1-0.1-0.1-0.2v0c0-0.2,0-0.3-0.1-0.3c0,0,0-0.1-0.1-0.1v0c0,0,0,0,0.1,0.1l0,0
				c0,0-0.1,0.1-0.2,0.2c-0.1,0.1-0.3,0.3-0.5,0.5c-0.2,0.2-0.4,0.4-0.5,0.6c-0.2,0.2-0.4,0.5-0.5,0.6c-0.3,0.3-0.4,0.5-0.5,0.6
				c-0.2,0.2-0.3,0.4-0.4,0.6c-0.2,0.3-0.3,0.5-0.3,0.6c0,0,0,0.1,0,0.2c0,0,0,0,0.1,0c0.1,0,0.2-0.1,0.3-0.2c0.3-0.2,0.7-0.5,1.2-1
				c0.4-0.4,0.8-0.8,1.2-1.2l0.6-0.6c0.2-0.2,0.3-0.3,0.3-0.3c0.1-0.1,0.2-0.1,0.2-0.2c0.1,0,0.1-0.1,0.2-0.1c0,0,0.1,0,0.1,0
				c0,0,0.1,0,0.1,0c0.1,0,0.1,0,0.2,0.1c0.1,0,0.1,0.1,0.2,0.1c0,0,0.1,0.1,0.1,0.1c0,0,0,0.1,0,0.1c0,0,0,0.1,0,0.1
				c0,0,0,0.1,0,0.2l0,0.2l-0.1,0.4c0,0.3-0.1,0.6-0.2,0.8c-0.1,0.3-0.2,0.9-0.4,1.7c-0.1,0.3-0.2,0.6-0.2,0.9
				c0.9-0.7,1.8-1.2,2.6-1.8c0.5-0.3,1-0.6,1.4-0.9c0.3-0.2,0.5-0.3,0.8-0.4c0.1,0,0.3-0.1,0.4-0.2c0.2-0.1,0.4-0.1,0.5-0.1
				C335,30.9,335.1,31,335.2,31.2z M324.8,42.7c0.7-1.5,1.4-3.5,2.2-5.8c-1,0.9-1.9,1.8-2.7,2.8c-0.8,0.9-1.4,1.8-1.9,2.7l-0.2,0.4
				l-0.1,0.2l-0.1,0.2l-0.2,0.4c0,0,0,0.2-0.1,0.4l0,0.2c0,0,0,0.1,0,0.1l0,0.1l-0.1,0.4l0,0.4l0,0.1c0,0,0,0.1,0,0.1v0.2
				c0,0.2,0.1,0.4,0.2,0.5c0.1,0.1,0.2,0.2,0.4,0.2c0.2,0,0.3,0,0.5-0.2c0.2-0.1,0.4-0.2,0.5-0.4l0.2-0.3c0,0,0.1-0.1,0.1-0.2
				c0.1-0.1,0.1-0.1,0.1-0.1c0.2-0.3,0.3-0.5,0.4-0.7C324.3,43.7,324.5,43.2,324.8,42.7z M325.2,33.3L325.2,33.3L325.2,33.3z"/>
			<path class="st0" d="M342.8,31c0.1,0.1,0.1,0.2,0,0.4c-0.3,0.6-0.6,1-0.9,1.4c-0.4,0.6-0.8,1.1-1,1.5c-0.1,0.1-0.2,0.2-0.3,0.3
				c-0.2,0.1-0.3,0.2-0.4,0.3c-0.1,0.1-0.2,0.1-0.3,0.1s-0.2,0-0.3,0s-0.2,0-0.2-0.1c-0.2,0-0.3-0.1-0.4-0.3
				c-0.1-0.1-0.1-0.2-0.2-0.3c-0.1-0.2-0.2-0.5-0.3-0.9c-0.1-0.4-0.2-0.6-0.2-0.7c0-0.1-0.1-0.2-0.1-0.2l0,0h0
				c-0.1,0-0.2,0.1-0.3,0.1c-0.2,0.1-0.4,0.3-0.6,0.5c-0.2,0.2-0.4,0.4-0.6,0.6c-0.4,0.4-0.7,0.8-1.1,1.3c-0.1,0.2-0.3,0.4-0.5,0.7
				c-0.3,0.4-0.5,0.7-0.5,0.8v0c-0.1,0.1-0.3,0.2-0.5,0.2s-0.3-0.1-0.4-0.2c-0.2-0.2-0.2-0.3-0.1-0.6l0-0.1v-0.1l0.1-0.2l0.1-0.4
				l0.2-0.8l0.5-1.6l0.4-1.3c-0.1,0-0.2,0-0.3-0.1c-0.1-0.1-0.1-0.3,0-0.4c0.1-0.1,0.1-0.3,0.2-0.4c0.1-0.1,0.2-0.2,0.3-0.4l0.3-0.4
				c0.1-0.2,0.2-0.3,0.3-0.4c0.1-0.1,0.2-0.2,0.4-0.2c0.2,0,0.3,0,0.4,0.1c0.2,0.2,0.3,0.4,0.2,0.6l0,0.2c-0.1,0.3-0.3,0.8-0.5,1.5
				l-0.5,1.6l-0.2,0.7c0.2-0.3,0.4-0.5,0.4-0.6c0.2-0.3,0.4-0.5,0.5-0.7c0.2-0.3,0.5-0.5,0.7-0.7c0.2-0.1,0.4-0.2,0.5-0.3
				c0.1,0,0.3-0.1,0.4-0.1c0.1,0,0.1,0,0.2,0s0.1,0,0.2,0c0.1,0,0.3,0.1,0.4,0.2c0.1,0.1,0.2,0.2,0.3,0.3c0.1,0.1,0.2,0.3,0.3,0.5
				c0,0.2,0.1,0.5,0.2,0.9c0,0.2,0.1,0.3,0.1,0.4c0,0.1,0.1,0.2,0.1,0.3c0.1,0,0.1-0.1,0.2-0.2c0.1-0.1,0.2-0.1,0.3-0.2
				c0.3-0.3,0.7-0.7,1.1-1.2c0.2-0.2,0.3-0.4,0.5-0.6c0.2-0.3,0.4-0.5,0.6-0.7C342.5,30.9,342.6,30.9,342.8,31z"/>
			<path class="st0" d="M362.5,20.3c0.1,0,0.2,0.1,0.3,0.2c0.1,0.1,0.1,0.2,0.1,0.4c0,0.2-0.2,0.4-0.4,0.4c-0.2,0-0.4,0-0.7,0
				s-0.5,0-0.7,0c-0.2,0-0.5,0-0.6,0.1c-0.1,0-0.2,0-0.3,0c0,0-0.1,0-0.1,0h0c-0.2,0.2-0.4,0.1-0.5-0.1c-0.1-0.1-0.1-0.2,0-0.4
				c-0.7,0-1.5-0.1-2.2,0c0,0-0.1,0-0.2,0s-0.2,0-0.2,0c-0.5,1.2-0.7,1.9-0.9,2.2c-0.9,2.5-1.8,4.8-2.5,6.9c-0.9,2.7-1.7,5-2.4,6.9
				c-0.4,1.4-0.8,2.5-1,3.5c-0.1,0.5-0.2,0.7-0.2,0.9l-0.1,0.4l-0.1,0.4c0,0.1-0.1,0.4-0.1,0.9l0,0.4c0,0,0,0.1,0,0.2s0,0.2,0,0.2v0
				c0,0.2-0.1,0.3-0.3,0.3c-0.2,0-0.2-0.1-0.3-0.3c0-0.4,0-1.1,0.1-1.9l0.1-0.4l0.1-0.5c0-0.1,0.1-0.4,0.2-0.9c0.2-1,0.6-2.2,1-3.6
				c0.6-2,1.3-4.3,2.2-7c0.7-2.1,1.5-4.5,2.4-7c0.1-0.2,0.2-0.4,0.3-0.8c0.1-0.4,0.2-0.6,0.2-0.6c-0.1,0.2-0.2,0.4-0.3,0.4l-1.6,2.7
				c-0.6,0.9-1.1,1.8-1.6,2.7c-0.7,1-1.2,2-1.8,2.7c-0.6,1-1.3,1.9-1.9,2.6c-0.4,0.6-0.8,1-1.1,1.2c-0.1,0.1-0.3,0.2-0.4,0.3
				c-0.1,0.1-0.2,0.1-0.3,0.1c0,0-0.1,0-0.1,0h0l0,0h-0.1c-0.1,0-0.2,0-0.3,0c-0.1,0-0.2-0.1-0.3-0.2s-0.2-0.2-0.2-0.3
				c-0.1-0.1-0.1-0.2-0.1-0.3c-0.1-0.2-0.1-0.6,0-1c0,0,0-0.1,0-0.2c-0.2,0.2-0.3,0.4-0.5,0.6c-0.4,0.5-0.7,0.9-1,1.1
				c-0.2,0.2-0.4,0.4-0.6,0.6c-0.1,0.1-0.2,0.2-0.4,0.3c-0.2,0.1-0.4,0.2-0.6,0.2h0l-0.2,0c-0.1-0.1-0.2-0.2-0.3-0.3
				c-0.1-0.1-0.2-0.2-0.3-0.4c-0.1-0.2-0.1-0.4-0.1-0.7c0-0.3,0.1-0.6,0.2-1c0.2-0.5,0.5-1,0.8-1.5c0.6-1,1.4-1.8,2.2-2.6
				c0.5-0.5,1-0.8,1.4-1c0.4-0.2,0.7-0.3,1-0.3c0.1,0,0.2,0,0.3,0c0,0,0.1,0,0.2,0h0c0,0,0,0,0.1,0c0.1,0,0.1,0,0.1,0.1
				c0.2,0.1,0.3,0.2,0.4,0.4c0,0.1,0.1,0.3,0.1,0.4c0,0.1,0,0.3,0,0.5c0,0.1-0.1,0.3-0.1,0.5c-0.1,0.2-0.2,0.5-0.3,0.8
				c-0.1,0.2-0.2,0.5-0.3,0.8c-0.1,0.1-0.1,0.3-0.2,0.4c-0.1,0.2-0.1,0.3-0.2,0.4c-0.2,0.2-0.4,0.3-0.6,0.1c0,0,0,0,0-0.1
				c0,0.1-0.1,0.3-0.1,0.4c-0.1,0.3-0.1,0.5-0.1,0.7c0,0.3,0,0.5,0,0.6c0,0,0,0,0,0.1c0,0,0.1,0,0.1,0h0h0l0.1,0
				c0.1,0,0.1-0.1,0.2-0.2c0.3-0.2,0.6-0.6,1-1.1c0.5-0.5,1.1-1.4,1.9-2.5c0.6-0.9,1.2-1.7,1.8-2.6c0.6-0.9,1.1-1.7,1.7-2.6
				c0.6-0.9,1.1-1.8,1.6-2.7c0,0,0.1-0.2,0.3-0.5c-0.9,0-1.8,0.1-2.6,0.2c-1.8,0.1-3.4,0.3-5.1,0.6c-1.8,0.3-3.5,0.7-5,1.1
				c-0.2,0-0.3,0-0.5,0s-0.3-0.2-0.3-0.4c0-0.2,0-0.4,0.1-0.5c0.1-0.2,0.2-0.3,0.4-0.3c1.6-0.4,3.3-0.7,5.1-1
				c1.7-0.2,3.4-0.4,5.1-0.5c1.1-0.1,2.2-0.1,3.4-0.2c0.3-0.5,0.5-0.8,0.6-1.2c0.3-0.5,0.5-1,0.7-1.4c0.1-0.2,0.2-0.5,0.3-0.7
				c0,0,0-0.1,0.1-0.1c0-0.1,0.1-0.2,0.1-0.3s0.1-0.2,0.1-0.3v0l0,0c0.1-0.2,0.2-0.3,0.4-0.3c0.2-0.1,0.3,0,0.5,0.1
				c0.4,0.2,0.5,0.4,0.3,0.8c-0.5,1.2-0.9,2.3-1.4,3.5c0,0,0,0,0.1,0c0.9,0,1.8,0.1,2.6,0.1C360.9,20.1,361.7,20.2,362.5,20.3
				L362.5,20.3z M342.3,33.8C342.2,33.9,342.2,33.9,342.3,33.8c0,0.1,0.1,0.1,0.1,0.1c0,0,0.1,0,0.1,0L342.3,33.8z M344.6,31.9
				c0.2-0.2,0.3-0.4,0.4-0.6c0.1-0.2,0.3-0.4,0.4-0.6l0.2-0.3l0.1-0.2c0-0.1,0.1-0.1,0.1-0.2v0c0.2-0.2,0.4-0.2,0.6,0
				c0,0,0.1,0.1,0.1,0.2c0.1-0.2,0.1-0.4,0.2-0.5c0.1-0.3,0.2-0.5,0.2-0.7c0-0.1,0.1-0.2,0.1-0.3s0-0.2,0-0.2
				c-0.2,0-0.4,0.1-0.6,0.2c-0.3,0.2-0.7,0.5-1.2,0.9c-0.7,0.7-1.3,1.5-1.9,2.4c-0.3,0.5-0.5,0.9-0.7,1.3c-0.1,0.2-0.1,0.4-0.1,0.6
				c0,0,0,0,0,0c0,0,0.1,0,0.1,0c0.2-0.1,0.3-0.2,0.5-0.4c0.3-0.3,0.6-0.6,0.9-1C344.3,32.2,344.4,32,344.6,31.9z"/>
			<path class="st0" d="M365.6,31.1c0.1,0.2,0,0.3-0.1,0.4h0c-0.2,0.1-0.4,0.2-0.6,0.3c-0.2,0.1-0.4,0.3-0.6,0.4
				c-0.2,0.2-0.4,0.3-0.6,0.5c-0.2,0.2-0.4,0.3-0.5,0.5c-0.1,0.1-0.2,0.2-0.4,0.3c-0.1,0.2-0.3,0.3-0.4,0.4
				c-0.1,0.1-0.2,0.2-0.4,0.3c-0.3,0.3-0.5,0.5-0.6,0.5c-0.1,0.1-0.2,0.2-0.3,0.3c-0.2,0.1-0.3,0.2-0.4,0.2l-0.1,0h-0.1
				c0,0,0,0-0.1,0c0,0-0.1,0-0.1,0c-0.1,0-0.1,0-0.2-0.1c0,0-0.1,0-0.1-0.1c0,0-0.1-0.1-0.2-0.1c0,0-0.1-0.1-0.1-0.1
				c0,0,0-0.1-0.1-0.2l0-0.1l0-0.1c0-0.1-0.1-0.3-0.1-0.5c0-0.1,0-0.3,0-0.5c0-0.3,0.1-0.7,0.3-1.2l-0.6,0.6
				c-0.7,0.8-1.2,1.4-1.5,1.7c-0.3,0.3-0.6,0.5-0.8,0.8c-0.4,0.3-0.7,0.6-1,0.7c-0.1,0.1-0.2,0.1-0.3,0.1c-0.2,0-0.4,0-0.5,0
				c-0.2-0.1-0.4-0.2-0.5-0.4c-0.1-0.1-0.1-0.2-0.2-0.4c0-0.2-0.1-0.4,0-0.7c0-0.2,0.1-0.4,0.1-0.6c0.1-0.3,0.2-0.7,0.3-1.1
				c0.1-0.3,0.2-0.7,0.4-1c0.2-0.6,0.5-1.3,0.9-2c0.2-0.4,0.4-0.7,0.5-1c0.1-0.2,0.2-0.4,0.3-0.5c0-0.1,0.1-0.2,0.1-0.2l0.1-0.1
				l0-0.1l0-0.1l0.1,0c0.1-0.1,0.3-0.2,0.4-0.2c0.2,0,0.3,0,0.5,0.1c0.1,0.1,0.2,0.3,0.2,0.5s0,0.3-0.2,0.5l0,0l0,0v0l-0.1,0.1
				l-0.1,0.2c-0.1,0.1-0.2,0.3-0.3,0.4c-0.2,0.4-0.4,0.7-0.5,0.9c-0.4,0.7-0.7,1.3-0.9,2c-0.3,0.7-0.6,1.3-0.8,2
				c0,0.2-0.1,0.3-0.1,0.5c0,0.2-0.1,0.3-0.1,0.4l0,0c0,0,0.1,0,0.1,0c0.2-0.1,0.5-0.3,0.8-0.5c0.2-0.2,0.5-0.4,0.8-0.7
				c0.5-0.5,1-1,1.5-1.6c0.5-0.5,0.9-1.1,1.4-1.7c0.2-0.3,0.4-0.6,0.6-0.9c0.1-0.2,0.2-0.3,0.3-0.4c0.1-0.2,0.2-0.4,0.2-0.4
				c0,0,0-0.1,0.1-0.1c0.1-0.2,0.2-0.3,0.4-0.3s0.3,0,0.5,0c0.3,0.1,0.4,0.4,0.3,0.6l-0.1,0.3c-0.1,0.3-0.3,0.7-0.6,1.3
				c-0.3,0.6-0.5,1.1-0.6,1.4c-0.2,0.5-0.4,0.9-0.5,1.3c0,0.1,0,0.2-0.1,0.3c0,0.1,0,0.2,0,0.2v0.1v0h0h0h0c0,0,0.1,0,0.2-0.1
				c0.1,0,0.2-0.1,0.3-0.2c0.2-0.1,0.4-0.3,0.6-0.4c0.3-0.3,0.7-0.6,1.1-1l0.6-0.5c0.2-0.2,0.4-0.3,0.6-0.5c0.2-0.2,0.5-0.4,0.6-0.5
				c0.2-0.2,0.5-0.3,0.7-0.4C365.4,30.9,365.6,31,365.6,31.1z M355.5,35.6L355.5,35.6L355.5,35.6z"/>
			<path class="st0" d="M372.2,31c0.2,0.1,0.2,0.2,0.1,0.4v0c-0.3,0.6-0.6,1.2-1,1.8c-0.4,0.6-0.7,1.1-1.1,1.7
				c-0.9,1.2-1.8,2.2-2.6,3c-0.6,0.5-1.2,0.9-1.7,1.2c-0.4,0.2-0.7,0.3-1,0.4c-0.1,0-0.2,0-0.3,0.1h-0.1c-0.1,0-0.1,0-0.1,0
				c-0.1,0-0.1,0-0.2,0c-0.2,0-0.4-0.2-0.5-0.3c-0.1-0.1-0.2-0.3-0.2-0.5c0-0.2,0-0.4,0.1-0.7c0-0.2,0.1-0.4,0.2-0.5
				c0.1-0.4,0.2-0.7,0.4-1c0.2-0.4,0.5-1,1-1.8c0.1-0.1,0.2-0.3,0.3-0.5c0.1-0.2,0.3-0.4,0.4-0.6s0.2-0.4,0.3-0.5
				c0.2-0.3,0.4-0.6,0.5-0.8c0,0,0,0,0-0.1v0h-0.1c-0.5-0.1-0.8-0.2-1.1-0.3c-0.2-0.1-0.4-0.2-0.6-0.4c-0.2-0.2-0.4-0.4-0.5-0.7
				c-0.1-0.2-0.1-0.5-0.1-0.8c0-0.1,0-0.1,0-0.2v-0.1c0-0.1,0-0.2,0.1-0.3c0.2-0.7,0.5-1.4,0.9-2c0.4-0.6,0.9-1.1,1.5-1.5
				c0,0,0.1-0.1,0.2-0.2c0.1-0.1,0.2-0.1,0.3-0.2c0.2-0.1,0.4-0.2,0.6-0.2c0.2,0,0.5-0.1,0.7-0.1c0.3,0,0.5,0.1,0.7,0.2
				c0.1,0.1,0.2,0.2,0.3,0.3c0.1,0.1,0.2,0.2,0.2,0.3c0.1,0.2,0.1,0.5,0.1,0.7c0,0.3-0.1,0.7-0.3,1.1l0,0c-0.3,0.4-0.5,0.8-0.8,1.1
				c-0.3,0.3-0.6,0.6-1,0.9c-0.3,0.2-0.6,0.5-1.1,0.8l-0.1,0.1c0.1,0,0.2,0,0.3,0.1c0.1,0,0.3,0,0.5,0l0.2,0h0c0,0,0.1,0,0.1,0
				c0.1,0,0.2,0.1,0.3,0.1c0.1,0.1,0.2,0.2,0.3,0.3c0,0.1,0,0.2,0.1,0.3c0,0.1,0,0.2,0,0.3c0,0.1,0,0.1-0.1,0.2
				c0,0.1-0.1,0.2-0.1,0.3c0,0.2-0.1,0.3-0.2,0.5c-0.1,0.2-0.3,0.5-0.5,0.9c-0.1,0.2-0.2,0.3-0.3,0.5s-0.3,0.4-0.4,0.6
				c-0.1,0.2-0.2,0.4-0.3,0.5c-0.4,0.6-0.7,1.2-1,1.7c-0.2,0.4-0.4,0.7-0.4,0.8c-0.1,0.2-0.1,0.3-0.2,0.4c0,0.1,0,0.1,0,0.2
				c0,0,0.1,0,0.1,0c0.2,0,0.5-0.1,0.8-0.2c0.5-0.2,1-0.6,1.6-1c0.9-0.8,1.8-1.7,2.6-2.8c0.4-0.6,0.8-1.1,1.1-1.6
				c0.4-0.6,0.7-1.2,0.9-1.7C371.9,31,372,30.9,372.2,31z M364.4,38.5L364.4,38.5L364.4,38.5L364.4,38.5z M365.5,30v0.1v0
				c0.2-0.1,0.4-0.2,0.4-0.3c0.4-0.2,0.7-0.5,1-0.7c0.3-0.3,0.6-0.5,0.9-0.8c0.3-0.3,0.5-0.6,0.7-0.9c0.1-0.2,0.1-0.3,0.1-0.4
				c0-0.1,0.1-0.2,0.1-0.3c0-0.1,0-0.2-0.1-0.3c0,0-0.1-0.1-0.2-0.1c-0.2-0.1-0.4-0.1-0.6,0c-0.1,0-0.2,0.1-0.3,0.2
				c0,0-0.1,0.1-0.1,0.1c-0.1,0.1-0.1,0.1-0.2,0.1c-0.5,0.5-0.8,0.9-1.1,1.4c-0.3,0.5-0.6,1-0.7,1.6c0,0,0,0.1,0,0.2L365.5,30z"/>
			<path class="st0" d="M372.1,31.3c0.4-0.1,0.8-0.2,1.1-0.5c0.4-0.2,0.7-0.5,1-0.8c0.3-0.3,0.6-0.6,0.8-1c0.1-0.2,0.2-0.4,0.3-0.5
				c0-0.1,0.1-0.2,0.1-0.3l0-0.1l0-0.1l0,0c0-0.1,0-0.2,0-0.3c0-0.1-0.1-0.1-0.1-0.1s-0.1,0-0.1,0c-0.1,0-0.2,0.1-0.3,0.2
				c0,0-0.1,0-0.1,0.1c0,0,0,0-0.1,0.1c-0.1,0.1-0.1,0.1-0.2,0.2c0,0-0.1,0.2-0.4,0.4c-0.2,0.3-0.5,0.6-0.7,0.9
				c-0.5,0.6-0.9,1.2-1.2,1.9c-0.2,0.4-0.3,0.7-0.5,1c-0.2,0.4-0.3,0.7-0.3,1c0,0,0,0.1,0,0.2c0,0,0,0.1,0,0.2l0,0.1
				c0,0,0,0.1,0,0.1l0,0.1l0,0.1v0l0,0.1l0,0.1c0.1,0.1,0.1,0.1,0.1,0.1l0.1,0.1l0.1,0l0,0c0,0,0,0,0,0h0.1c0.1,0,0.2,0.1,0.4,0
				c0.1,0,0.3-0.1,0.5-0.1c0.3-0.1,0.6-0.3,1-0.5c0.6-0.3,1.2-0.8,1.9-1.3c0.6-0.5,1.1-1,1.8-1.5c0.1-0.1,0.3-0.1,0.4,0
				c0.1,0.1,0.1,0.3,0,0.4c-0.6,0.6-1.2,1.2-1.7,1.6c-0.7,0.6-1.3,1.1-1.9,1.5c-0.4,0.2-0.8,0.4-1.1,0.6c-0.2,0.1-0.5,0.2-0.6,0.2
				c-0.3,0.1-0.5,0.1-0.8,0c-0.1,0-0.2,0-0.2-0.1c0,0-0.1,0-0.1,0l-0.1-0.1l-0.2-0.1c0,0-0.1-0.1-0.2-0.1c0,0-0.1-0.1-0.3-0.3
				c0,0-0.1-0.1-0.1-0.2l-0.1-0.1l0-0.1c0-0.1-0.1-0.2-0.1-0.2l-0.1-0.2c0,0,0-0.1,0-0.2l0-0.2c0-0.2,0-0.5,0-0.7
				c0.1-0.7,0.4-1.5,0.8-2.4c0.3-0.7,0.8-1.4,1.3-2.1c0.2-0.3,0.5-0.6,0.7-0.9c0.2-0.2,0.3-0.3,0.4-0.5c0.1-0.1,0.2-0.1,0.2-0.2
				l0.3-0.2c0.1-0.1,0.3-0.1,0.4-0.2c0.1,0,0.2-0.1,0.4-0.1c0.4-0.1,0.7,0,1,0.2s0.5,0.5,0.5,0.8c0,0.3,0,0.6-0.1,0.8l0,0l-0.1,0.2
				l-0.1,0.2c-0.1,0.1-0.1,0.2-0.2,0.3c-0.1,0.2-0.3,0.4-0.4,0.6c-0.3,0.4-0.6,0.7-1,1c-0.4,0.3-0.7,0.6-1.1,0.8
				c-0.5,0.3-0.9,0.4-1.4,0.5c-0.2,0-0.3-0.1-0.3-0.2C371.8,31.5,371.9,31.4,372.1,31.3z"/>
			<path class="st0" d="M421.6,7.1c0,0.2,0,0.5,0,0.7c0,0.3-0.2,0.7-0.3,1.2c-0.1,0.3-0.3,0.6-0.4,1.1c-0.6,1.3-1,2-1,2.1
				c-0.3,0.8-0.6,1.5-0.7,2.1c-0.2,0.8-0.2,1.4-0.1,2c0,0.2,0,0.3-0.1,0.5c-0.1,0.2-0.2,0.3-0.4,0.3c-0.1,0-0.2,0-0.3,0
				c-0.1,0-0.2-0.1-0.3-0.2c-0.1-0.1-0.1-0.2-0.1-0.3c0,0,0,0,0-0.1v0c-0.1-0.7,0-1.6,0.3-2.4c0.2-0.6,0.5-1.4,0.9-2.2
				c0.1-0.2,0.2-0.6,0.5-1.1s0.4-0.8,0.5-1c0.2-0.4,0.4-0.7,0.4-1c0.2-0.4,0.2-0.7,0.3-1c0-0.2,0-0.3,0-0.4c0-0.1-0.1-0.2-0.1-0.3
				c-0.1-0.1-0.4-0.2-0.7-0.3c-0.3-0.1-0.6-0.1-1-0.1c-0.3,0-0.6,0.1-1,0.1c-0.7,0.1-1.4,0.2-2.1,0.4c-0.7,0.2-1.4,0.4-2.1,0.6
				c-2.7,0.9-5.4,2-8.3,3.5c-1.3,0.7-2.6,1.4-3.9,2.1c-1.4,0.8-2.6,1.6-3.8,2.4c-1.4,1-2.5,2-3.3,2.9c-0.5,0.6-0.9,1.2-1.2,1.7
				c-0.2,0.3-0.2,0.6-0.3,0.9c0,0.1,0,0.3,0,0.4c0,0,0,0.1,0,0.1l0,0.1c0,0.1,0,0.1,0.1,0.2c0.1,0.2,0.3,0.4,0.5,0.6
				c0.2,0.2,0.5,0.4,0.8,0.5c0.5,0.3,1.2,0.5,2,0.8c0.7,0.3,2.2,0.7,4.3,1.3c1.9,0.5,3.4,1,4.4,1.3c1.7,0.6,3.1,1.2,4.2,2
				c0.8,0.5,1.4,1,1.9,1.5c0.3,0.3,0.6,0.6,0.8,0.9c0.2,0.3,0.4,0.7,0.6,1.1c0.2,0.4,0.3,0.8,0.4,1.2l1.7-0.6
				c0.9-0.3,1.6-0.6,2.1-0.8c0.4-0.2,0.8-0.3,1-0.4c0.5-0.2,0.8-0.4,1-0.5c0.2-0.1,0.3-0.1,0.4,0.1c0.1,0.2,0.1,0.3-0.1,0.4
				c-0.2,0.1-0.6,0.3-1,0.5c-0.3,0.1-0.7,0.2-1.1,0.4c-0.5,0.2-1.2,0.5-2.1,0.8l-1.8,0.7c0,0.3,0,0.5,0,0.7c0,0.4,0,0.6,0,0.6l0,0.3
				l-0.1,0.3l-0.1,0.6c0,0,0,0.1,0,0.2s0,0.1-0.1,0.2c0,0.1,0,0.1-0.1,0.2c0,0.2-0.2,0.5-0.4,1.1c0,0-0.1,0.2-0.3,0.5
				c-0.1,0.3-0.2,0.5-0.3,0.5l-0.3,0.5l-0.2,0.3l-0.2,0.2l-0.3,0.5c0,0.1-0.1,0.2-0.2,0.3c-0.1,0.1-0.1,0.2-0.2,0.2
				c-0.9,1.2-2,2.3-3.3,3.3c-1.1,0.9-2.4,1.8-3.9,2.5c-1.3,0.7-2.7,1.4-4.1,2c-1.5,0.7-2.9,1.2-4.3,1.6c-0.8,0.2-1.5,0.4-2.2,0.6
				c-0.2,0.1-0.4,0.1-0.5,0.1c-0.2,0-0.4,0.1-0.6,0.1l-0.3,0l-0.3,0.1c-0.2,0-0.4,0-0.6,0.1c-0.9,0.1-1.7,0.1-2.4,0
				c-0.5,0-0.9-0.1-1.2-0.2c-0.5-0.2-0.9-0.3-1.2-0.6c-0.2-0.2-0.4-0.3-0.5-0.5c-0.2-0.2-0.3-0.5-0.3-0.7s-0.1-0.5-0.1-0.7
				c0,0,0-0.1,0-0.2c0-0.1,0-0.2,0-0.2l0.1-0.3c0.3-0.7,0.7-1.4,1.3-2c0.5-0.5,1-1,1.8-1.6c0.5-0.4,1.2-0.9,1.9-1.3
				c1.1-0.7,2.4-1.5,4-2.2c2.2-1.1,5-2.3,8.3-3.7c2.3-0.9,5.1-2,8.5-3.2l1.3-0.5c0-0.4-0.1-0.8-0.3-1.1c-0.1-0.3-0.3-0.6-0.5-0.8
				c-0.2-0.3-0.5-0.5-0.7-0.8c-0.4-0.4-1-0.9-1.7-1.3c-1-0.6-2.3-1.2-4-1.8c-1-0.4-2.4-0.8-4.3-1.3c-2.1-0.6-3.6-1.1-4.4-1.4
				c-0.9-0.3-1.6-0.6-2.2-0.9c-0.4-0.2-0.8-0.5-1-0.7c-0.4-0.3-0.7-0.7-0.9-1.1c0,0-0.1-0.1-0.1-0.4c-0.1-0.2-0.1-0.3-0.1-0.4
				c0-0.2-0.1-0.5,0-0.7c0-0.4,0.2-0.8,0.4-1.3c0.3-0.6,0.8-1.3,1.4-2c0.9-1,2.1-2,3.5-3.1c1.2-0.8,2.5-1.7,3.9-2.5
				c1.3-0.8,2.6-1.5,4-2.2c1.4-0.7,2.8-1.3,4.1-1.9c1.5-0.6,3-1.2,4.3-1.6c1.7-0.5,3.2-0.8,4.5-1c1-0.1,1.8-0.1,2.4,0.1
				c0.2,0.1,0.5,0.2,0.7,0.2c0.2,0.1,0.5,0.3,0.6,0.5C421.4,6.6,421.5,6.8,421.6,7.1z M411.5,34.6c0,0,0-0.1,0-0.2l-1.1,0.4
				c-3.3,1.2-6.1,2.3-8.4,3.3c-1.4,0.6-2.8,1.2-4.1,1.8c-1.5,0.7-2.9,1.3-4.1,2c-1.5,0.8-2.8,1.5-3.9,2.2c-0.7,0.5-1.3,0.9-1.8,1.3
				c-0.6,0.5-1.1,1-1.6,1.5c-0.2,0.2-0.4,0.5-0.6,0.9c-0.2,0.3-0.3,0.6-0.4,0.9c-0.2,0.6,0,1.1,0.4,1.4c0.2,0.2,0.5,0.3,0.9,0.3
				c0.3,0.1,0.7,0.2,1,0.2c0.7,0,1.4,0,2.1,0c0.2,0,0.4,0,0.5-0.1l0.3,0l0.3-0.1c0.2,0,0.3-0.1,0.5-0.1c0.2,0,0.4-0.1,0.5-0.1
				c0.7-0.2,1.4-0.4,2.1-0.6c1.3-0.4,2.7-1,4.2-1.6c1.4-0.6,2.7-1.3,4-2c1.4-0.8,2.6-1.6,3.7-2.5c1.2-1,2.2-2,3.1-3.1
				c0,0,0.1-0.1,0.1-0.2c0.1-0.1,0.1-0.2,0.2-0.2l0.3-0.5l0.2-0.2l0.1-0.2l0.3-0.5c0,0,0-0.1,0.1-0.1c0,0,0-0.1,0-0.1
				c0,0,0-0.1,0-0.1c0,0,0-0.1,0.1-0.1l0.2-0.5c0.2-0.6,0.3-0.9,0.4-1c0,0,0-0.1,0-0.2c0-0.1,0.1-0.2,0.1-0.3l0.1-0.5l0.1-0.3l0-0.3
				L411.5,34.6z"/>
			<path class="st0" d="M419.1,31.3c0.4-0.1,0.8-0.2,1.1-0.5c0.4-0.2,0.7-0.5,1-0.8c0.3-0.3,0.6-0.6,0.8-1c0.1-0.2,0.2-0.4,0.3-0.5
				c0-0.1,0.1-0.2,0.1-0.3l0-0.1l0-0.1l0,0c0-0.1,0-0.2,0-0.3c0-0.1-0.1-0.1-0.1-0.1s-0.1,0-0.1,0c-0.1,0-0.2,0.1-0.3,0.2
				c0,0-0.1,0-0.1,0.1c0,0,0,0-0.1,0.1c-0.1,0.1-0.1,0.1-0.2,0.2c0,0-0.1,0.2-0.4,0.4c-0.2,0.3-0.5,0.6-0.7,0.9
				c-0.5,0.6-0.9,1.2-1.2,1.9c-0.2,0.4-0.3,0.7-0.5,1c-0.2,0.4-0.3,0.7-0.3,1c0,0,0,0.1,0,0.2c0,0,0,0.1,0,0.2l0,0.1
				c0,0,0,0.1,0,0.1l0,0.1l0,0.1v0l0,0.1l0,0.1c0.1,0.1,0.1,0.1,0.1,0.1l0.1,0.1l0.1,0l0,0c0,0,0,0,0,0h0.1c0.1,0,0.2,0.1,0.4,0
				c0.1,0,0.3-0.1,0.5-0.1c0.3-0.1,0.6-0.3,1-0.5c0.6-0.3,1.2-0.8,1.9-1.3c0.6-0.5,1.1-1,1.8-1.5c0.1-0.1,0.3-0.1,0.4,0
				c0.1,0.1,0.1,0.3,0,0.4c-0.6,0.6-1.2,1.2-1.7,1.6c-0.7,0.6-1.3,1.1-1.9,1.5c-0.4,0.2-0.8,0.4-1.1,0.6c-0.2,0.1-0.5,0.2-0.6,0.2
				c-0.3,0.1-0.5,0.1-0.8,0c-0.1,0-0.2,0-0.2-0.1c0,0-0.1,0-0.1,0l-0.1-0.1l-0.2-0.1c0,0-0.1-0.1-0.2-0.1c0,0-0.1-0.1-0.3-0.3
				c0,0-0.1-0.1-0.1-0.2l-0.1-0.1l0-0.1c0-0.1-0.1-0.2-0.1-0.2l-0.1-0.2c0,0,0-0.1,0-0.2l0-0.2c0-0.2,0-0.5,0-0.7
				c0.1-0.7,0.4-1.5,0.8-2.4c0.3-0.7,0.8-1.4,1.3-2.1c0.2-0.3,0.5-0.6,0.7-0.9c0.2-0.2,0.3-0.3,0.4-0.5c0.1-0.1,0.2-0.1,0.2-0.2
				l0.3-0.2c0.1-0.1,0.3-0.1,0.4-0.2c0.1,0,0.2-0.1,0.4-0.1c0.4-0.1,0.7,0,1,0.2s0.5,0.5,0.5,0.8c0,0.3,0,0.6-0.1,0.8l0,0l-0.1,0.2
				l-0.1,0.2c-0.1,0.1-0.1,0.2-0.2,0.3c-0.1,0.2-0.3,0.4-0.4,0.6c-0.3,0.4-0.6,0.7-1,1c-0.4,0.3-0.7,0.6-1.1,0.8
				c-0.5,0.3-0.9,0.4-1.4,0.5c-0.2,0-0.3-0.1-0.3-0.2C418.9,31.5,419,31.4,419.1,31.3z"/>
			<path class="st0" d="M431.7,31c0.2,0.1,0.2,0.2,0.1,0.4v0c-0.3,0.6-0.6,1.2-1,1.8c-0.4,0.6-0.7,1.1-1.1,1.7
				c-0.9,1.2-1.8,2.2-2.6,3c-0.6,0.5-1.2,0.9-1.7,1.2c-0.4,0.2-0.7,0.3-1,0.4c-0.1,0-0.2,0-0.3,0.1h-0.1c-0.1,0-0.1,0-0.1,0
				c-0.1,0-0.1,0-0.2,0c-0.2,0-0.4-0.2-0.5-0.3c-0.1-0.1-0.2-0.3-0.2-0.5c0-0.2,0-0.4,0.1-0.7c0-0.2,0.1-0.4,0.2-0.5
				c0.1-0.4,0.2-0.7,0.4-1c0.2-0.4,0.5-1,1-1.8c0.1-0.1,0.2-0.3,0.3-0.5c0.1-0.2,0.3-0.4,0.4-0.6s0.2-0.4,0.3-0.5
				c0.2-0.3,0.4-0.6,0.5-0.8c0,0,0,0,0-0.1v0h-0.1c-0.5-0.1-0.8-0.2-1.1-0.3c-0.2-0.1-0.4-0.2-0.6-0.4c-0.2-0.2-0.4-0.4-0.5-0.7
				c-0.1-0.2-0.1-0.5-0.1-0.8c0-0.1,0-0.1,0-0.2v-0.1c0-0.1,0-0.2,0.1-0.3c0.2-0.7,0.5-1.4,0.9-2c0.4-0.6,0.9-1.1,1.5-1.5
				c0,0,0.1-0.1,0.2-0.2c0.1-0.1,0.2-0.1,0.3-0.2c0.2-0.1,0.4-0.2,0.6-0.2c0.2,0,0.5-0.1,0.7-0.1c0.3,0,0.5,0.1,0.7,0.2
				c0.1,0.1,0.2,0.2,0.3,0.3c0.1,0.1,0.2,0.2,0.2,0.3c0.1,0.2,0.1,0.5,0.1,0.7c0,0.3-0.1,0.7-0.3,1.1l0,0c-0.3,0.4-0.5,0.8-0.8,1.1
				c-0.3,0.3-0.6,0.6-1,0.9c-0.3,0.2-0.6,0.5-1.1,0.8l-0.1,0.1c0.1,0,0.2,0,0.3,0.1c0.1,0,0.3,0,0.5,0l0.2,0h0c0,0,0.1,0,0.1,0
				c0.1,0,0.2,0.1,0.3,0.1c0.1,0.1,0.2,0.2,0.3,0.3c0,0.1,0,0.2,0.1,0.3c0,0.1,0,0.2,0,0.3c0,0.1,0,0.1-0.1,0.2
				c0,0.1-0.1,0.2-0.1,0.3c0,0.2-0.1,0.3-0.2,0.5c-0.1,0.2-0.3,0.5-0.5,0.9c-0.1,0.2-0.2,0.3-0.3,0.5s-0.3,0.4-0.4,0.6
				c-0.1,0.2-0.2,0.4-0.3,0.5c-0.4,0.6-0.7,1.2-1,1.7c-0.2,0.4-0.4,0.7-0.4,0.8c-0.1,0.2-0.1,0.3-0.2,0.4c0,0.1,0,0.1,0,0.2
				c0,0,0.1,0,0.1,0c0.2,0,0.5-0.1,0.8-0.2c0.5-0.2,1-0.6,1.6-1c0.9-0.8,1.8-1.7,2.6-2.8c0.4-0.6,0.8-1.1,1.1-1.6
				c0.4-0.6,0.7-1.2,0.9-1.7C431.4,31,431.6,30.9,431.7,31z M424,38.5L424,38.5L424,38.5L424,38.5z M425.1,30v0.1v0
				c0.2-0.1,0.4-0.2,0.4-0.3c0.4-0.2,0.7-0.5,1-0.7c0.3-0.3,0.6-0.5,0.9-0.8c0.3-0.3,0.5-0.6,0.7-0.9c0.1-0.2,0.1-0.3,0.1-0.4
				c0-0.1,0.1-0.2,0.1-0.3c0-0.1,0-0.2-0.1-0.3c0,0-0.1-0.1-0.2-0.1c-0.2-0.1-0.4-0.1-0.6,0c-0.1,0-0.2,0.1-0.3,0.2
				c0,0-0.1,0.1-0.1,0.1c-0.1,0.1-0.1,0.1-0.2,0.1c-0.5,0.5-0.8,0.9-1.1,1.4c-0.3,0.5-0.6,1-0.7,1.6c0,0,0,0.1,0,0.2L425.1,30z"/>
			<path class="st0" d="M436.6,31c0.1,0.1,0.1,0.2,0,0.4c-0.1,0.2-0.3,0.4-0.6,0.7c-0.2,0.2-0.4,0.4-0.6,0.6
				c-0.4,0.4-0.8,0.8-1.2,1.2c-0.5,0.4-0.9,0.8-1.3,1.1c-0.2,0.2-0.5,0.4-0.7,0.5c-0.3,0.2-0.5,0.4-0.7,0.5
				c-0.1,0.1-0.2,0.1-0.2,0.1c-0.1,0-0.2,0.1-0.3,0.1c0,0-0.1,0-0.1,0c0,0-0.1,0-0.1,0c-0.1,0-0.1,0-0.2,0c0,0-0.1,0-0.1,0
				c-0.1-0.1-0.2-0.2-0.3-0.3c-0.1-0.2-0.2-0.4-0.2-0.6c0-0.2,0-0.3,0-0.5c0-0.5,0.2-1,0.4-1.8c0.2-0.4,0.4-0.9,0.6-1.5
				c-0.1,0-0.1-0.1-0.1-0.1c-0.1-0.2-0.1-0.4,0.1-0.5l0,0c0,0,0.1-0.1,0.2-0.2c0.1-0.2,0.2-0.3,0.2-0.3c0.2-0.2,0.3-0.5,0.5-0.7l0,0
				c0.1-0.1,0.3-0.2,0.5-0.1c0.2,0,0.3,0.1,0.4,0.2c0.2,0.2,0.2,0.4,0.1,0.7c0,0-0.1,0.1-0.1,0.2s-0.1,0.1-0.1,0.2
				c0,0.1-0.1,0.1-0.1,0.2s-0.1,0.1-0.1,0.2c-0.1,0.3-0.3,0.5-0.4,0.7c-0.3,0.6-0.5,1.1-0.7,1.5c-0.3,0.6-0.4,1.1-0.5,1.5
				c0,0.1,0,0.2,0,0.3c0,0,0,0,0,0.1c0,0,0.1,0,0.2-0.1c0.2-0.1,0.4-0.2,0.7-0.4c0.2-0.1,0.4-0.3,0.7-0.5c0.4-0.3,0.8-0.7,1.3-1
				c0.4-0.4,0.8-0.8,1.2-1.1c0.2-0.2,0.4-0.4,0.6-0.6c0.2-0.2,0.4-0.4,0.6-0.6v0C436.3,30.9,436.5,30.9,436.6,31z M432.8,29.1
				c-0.2-0.1-0.3-0.2-0.3-0.3s-0.1-0.3,0-0.5c0.2-0.3,0.4-0.7,0.6-1.1c0.1-0.1,0.2-0.2,0.4-0.2s0.3,0,0.5,0.1s0.2,0.2,0.3,0.4
				s0,0.4-0.1,0.5c-0.2,0.3-0.4,0.6-0.5,0.8c-0.1,0.3-0.3,0.4-0.6,0.4C433,29.2,432.9,29.2,432.8,29.1z"/>
			<path class="st0" d="M436.3,31.3c0.4-0.1,0.8-0.2,1.1-0.5c0.4-0.2,0.7-0.5,1-0.8c0.3-0.3,0.6-0.6,0.8-1c0.1-0.2,0.2-0.4,0.3-0.5
				c0-0.1,0.1-0.2,0.1-0.3l0-0.1l0-0.1l0,0c0-0.1,0-0.2,0-0.3c0-0.1-0.1-0.1-0.1-0.1s-0.1,0-0.1,0c-0.1,0-0.2,0.1-0.3,0.2
				c0,0-0.1,0-0.1,0.1c0,0,0,0-0.1,0.1c-0.1,0.1-0.1,0.1-0.2,0.2c0,0-0.1,0.2-0.4,0.4c-0.2,0.3-0.5,0.6-0.7,0.9
				c-0.5,0.6-0.9,1.2-1.2,1.9c-0.2,0.4-0.3,0.7-0.5,1c-0.2,0.4-0.3,0.7-0.3,1c0,0,0,0.1,0,0.2c0,0,0,0.1,0,0.2l0,0.1
				c0,0,0,0.1,0,0.1l0,0.1l0,0.1v0l0,0.1l0,0.1c0.1,0.1,0.1,0.1,0.1,0.1l0.1,0.1l0.1,0l0,0c0,0,0,0,0,0h0.1c0.1,0,0.2,0.1,0.4,0
				c0.1,0,0.3-0.1,0.5-0.1c0.3-0.1,0.6-0.3,1-0.5c0.6-0.3,1.2-0.8,1.9-1.3c0.6-0.5,1.1-1,1.8-1.5c0.1-0.1,0.3-0.1,0.4,0
				c0.1,0.1,0.1,0.3,0,0.4c-0.6,0.6-1.2,1.2-1.7,1.6c-0.7,0.6-1.3,1.1-1.9,1.5c-0.4,0.2-0.8,0.4-1.1,0.6c-0.2,0.1-0.5,0.2-0.6,0.2
				c-0.3,0.1-0.5,0.1-0.8,0c-0.1,0-0.2,0-0.2-0.1c0,0-0.1,0-0.1,0l-0.1-0.1l-0.2-0.1c0,0-0.1-0.1-0.2-0.1c0,0-0.1-0.1-0.3-0.3
				c0,0-0.1-0.1-0.1-0.2l-0.1-0.1l0-0.1c0-0.1-0.1-0.2-0.1-0.2l-0.1-0.2c0,0,0-0.1,0-0.2l0-0.2c0-0.2,0-0.5,0-0.7
				c0.1-0.7,0.4-1.5,0.8-2.4c0.3-0.7,0.8-1.4,1.3-2.1c0.2-0.3,0.5-0.6,0.7-0.9c0.2-0.2,0.3-0.3,0.4-0.5c0.1-0.1,0.2-0.1,0.2-0.2
				l0.3-0.2c0.1-0.1,0.3-0.1,0.4-0.2c0.1,0,0.2-0.1,0.4-0.1c0.4-0.1,0.7,0,1,0.2s0.5,0.5,0.5,0.8c0,0.3,0,0.6-0.1,0.8l0,0l-0.1,0.2
				l-0.1,0.2c-0.1,0.1-0.1,0.2-0.2,0.3c-0.1,0.2-0.3,0.4-0.4,0.6c-0.3,0.4-0.6,0.7-1,1c-0.4,0.3-0.7,0.6-1.1,0.8
				c-0.5,0.3-0.9,0.4-1.4,0.5c-0.2,0-0.3-0.1-0.3-0.2C436,31.5,436.1,31.4,436.3,31.3z"/>
			<path class="st0" d="M449.6,31.2c0.1,0.2,0,0.3-0.1,0.4c0,0-0.1,0-0.1,0.1l-0.1,0.1l-0.3,0.2l-0.5,0.4l-1.1,0.7
				c-0.8,0.5-1.6,1-2.2,1.4c0,0.5,0,0.9-0.2,1.3c-0.2,0.6-0.5,1.1-1,1.5c-0.5,0.5-1,0.8-1.5,0.9c-0.4,0.1-0.7,0.1-1,0.1
				c-0.3,0-0.6-0.2-0.9-0.4c-0.3-0.2-0.5-0.5-0.6-0.8c-0.1-0.2-0.1-0.3-0.1-0.5c0-0.1,0-0.2,0-0.3c0-0.1,0.1-0.2,0.2-0.3
				c0.1-0.1,0.2-0.1,0.3-0.1c0.1,0,0.1,0,0.2,0c0.1,0,0.2,0,0.3,0c0.2,0,0.4-0.1,0.6-0.2c0.3-0.1,0.7-0.3,1.1-0.5
				c0.4-0.2,0.8-0.4,1.2-0.7c0,0,0-0.1,0-0.1v0l0-0.1c0-0.1-0.1-0.3-0.3-0.4c-0.1-0.1-0.3-0.3-0.5-0.5c-0.7-0.6-1.1-1-1.2-1.1
				c-0.2-0.3-0.4-0.5-0.6-0.8c-0.1-0.1-0.1-0.3-0.2-0.5c0-0.2-0.1-0.4,0-0.6c0-0.3,0.1-0.6,0.2-0.9c0.1-0.3,0.3-0.5,0.5-0.8
				c0.3-0.4,0.7-0.8,1.2-1.2c0.4-0.3,0.9-0.6,1.4-0.9c0.6-0.3,1.1-0.5,1.6-0.5c0.1,0,0.2,0,0.3,0c0.1,0,0.2,0.1,0.2,0.2
				c0.1,0.1,0.1,0.2,0.1,0.3c0,0,0,0.1,0,0.2c0,0,0,0.1,0,0.1l0,0.1c0,0.1-0.1,0.1-0.1,0.2c0,0-0.1,0.1-0.1,0.2c0,0-0.1,0.2-0.3,0.4
				l-0.5,0.8c-0.2,0.3-0.3,0.5-0.5,0.8c-0.1,0.2-0.2,0.3-0.2,0.4c0,0.1,0,0.1-0.1,0.2c0,0,0,0.1,0,0.1c0,0,0,0,0,0
				c0,0.2-0.1,0.3-0.3,0.3s-0.3-0.1-0.3-0.3c0,0,0-0.1,0.1-0.2c0,0,0-0.1,0-0.1c0-0.1,0.1-0.1,0.1-0.2l0.2-0.4
				c0.1-0.3,0.3-0.6,0.4-0.9c0.1-0.2,0.1-0.4,0.2-0.6c-0.1,0-0.2,0.1-0.3,0.1c-0.4,0.2-0.8,0.5-1.1,0.7c-0.4,0.3-0.7,0.6-0.9,1
				c-0.3,0.4-0.4,0.7-0.4,1v0.1c0,0.1,0,0.3,0.1,0.4c0.1,0.1,0.2,0.3,0.4,0.5c0,0,0.4,0.4,1.1,1c0.2,0.2,0.5,0.4,0.6,0.6
				c0.1,0.2,0.2,0.3,0.3,0.4c0.1,0.1,0.2,0.3,0.2,0.4c0.6-0.4,1.3-0.8,2-1.2l1.1-0.7l0.5-0.3l0.3-0.2l0.1-0.1c0.1,0,0.1-0.1,0.2-0.1
				C449.4,31,449.5,31,449.6,31.2z M443.6,35.2C443.6,35.2,443.6,35.2,443.6,35.2c-0.3,0.1-0.6,0.2-0.8,0.4
				c-0.5,0.2-0.9,0.5-1.2,0.6c-0.2,0.1-0.5,0.2-0.6,0.2c-0.1,0-0.2,0-0.4,0.1c0,0-0.1,0-0.1,0c0,0.1,0.1,0.1,0.1,0.2
				c0.1,0.2,0.2,0.3,0.4,0.4c0.2,0.1,0.3,0.2,0.5,0.1c0.2,0,0.3,0,0.5-0.1c0.3-0.2,0.7-0.5,1-0.8C443.3,36,443.5,35.6,443.6,35.2z
				 M440.9,30.3C440.9,30.3,440.9,30.3,440.9,30.3L440.9,30.3z M445.2,26.5L445.2,26.5L445.2,26.5L445.2,26.5z"/>
		</g>
	</g>
</g>
<g id="INVISIBLE_BOX_00000147184700024164957530000000576513103372283039_">
	<rect id="INVISIBLE_BOX" y="0" class="st1" width="590" height="58"/>
</g>
<g id="GUIDE">
</g>
</svg>
