<svg width="591" height="36" viewBox="0 0 591 36" fill="none" xmlns="http://www.w3.org/2000/svg">
<path d="M26.0718 5.39H15.0738V35H11.1258V5.39H0.12784V1.724H26.0718V5.39ZM30.7351 1.724H34.6831V15.824H52.4491V1.724H56.3971V35H52.4491V19.49H34.6831V35H30.7351V1.724ZM64.6541 1.724H85.5691V5.39H68.6021V15.824H84.4411V19.49H68.6021V31.334H86.4151V35H64.6541V1.724ZM104.843 1.724H117.204C118.928 1.724 120.557 1.88067 122.092 2.194C123.628 2.50733 124.959 3.05567 126.087 3.839C127.247 4.591 128.155 5.625 128.813 6.941C129.503 8.22566 129.847 9.855 129.847 11.829C129.847 13.7717 129.534 15.401 128.907 16.717C128.281 18.033 127.419 19.0827 126.322 19.866C125.226 20.6493 123.925 21.2133 122.421 21.558C120.917 21.8713 119.288 22.028 117.533 22.028H112.175V35H104.843V1.724ZM112.175 15.824H117.063C117.721 15.824 118.348 15.7613 118.943 15.636C119.57 15.5107 120.118 15.307 120.588 15.025C121.09 14.7117 121.481 14.3043 121.763 13.803C122.077 13.2703 122.233 12.6123 122.233 11.829C122.233 10.983 122.03 10.3093 121.622 9.808C121.246 9.27533 120.745 8.868 120.118 8.586C119.523 8.304 118.849 8.13167 118.097 8.069C117.345 7.975 116.625 7.928 115.935 7.928H112.175V15.824ZM132.662 18.362C132.662 15.6987 133.101 13.286 133.978 11.124C134.887 8.962 136.14 7.129 137.738 5.625C139.336 4.08967 141.232 2.91467 143.425 2.1C145.618 1.28533 148.015 0.877999 150.616 0.877999C153.217 0.877999 155.614 1.28533 157.807 2.1C160 2.91467 161.896 4.08967 163.494 5.625C165.092 7.129 166.33 8.962 167.207 11.124C168.116 13.286 168.57 15.6987 168.57 18.362C168.57 21.0253 168.116 23.438 167.207 25.6C166.33 27.762 165.092 29.6107 163.494 31.146C161.896 32.65 160 33.8093 157.807 34.624C155.614 35.4387 153.217 35.846 150.616 35.846C148.015 35.846 145.618 35.4387 143.425 34.624C141.232 33.8093 139.336 32.65 137.738 31.146C136.14 29.6107 134.887 27.762 133.978 25.6C133.101 23.438 132.662 21.0253 132.662 18.362ZM140.276 18.362C140.276 19.9287 140.511 21.37 140.981 22.686C141.482 23.9707 142.187 25.0987 143.096 26.07C144.005 27.01 145.086 27.7463 146.339 28.279C147.624 28.8117 149.049 29.078 150.616 29.078C152.183 29.078 153.593 28.8117 154.846 28.279C156.131 27.7463 157.227 27.01 158.136 26.07C159.045 25.0987 159.734 23.9707 160.204 22.686C160.705 21.37 160.956 19.9287 160.956 18.362C160.956 16.8267 160.705 15.401 160.204 14.085C159.734 12.769 159.045 11.641 158.136 10.701C157.227 9.72967 156.131 8.97767 154.846 8.445C153.593 7.91233 152.183 7.646 150.616 7.646C149.049 7.646 147.624 7.91233 146.339 8.445C145.086 8.97767 144.005 9.72967 143.096 10.701C142.187 11.641 141.482 12.769 140.981 14.085C140.511 15.401 140.276 16.8267 140.276 18.362ZM173.553 1.724H184.551C187.215 1.724 189.737 2.02167 192.118 2.617C194.531 3.21233 196.63 4.18367 198.416 5.531C200.202 6.847 201.612 8.57033 202.646 10.701C203.712 12.8317 204.244 15.4167 204.244 18.456C204.244 21.1507 203.727 23.532 202.693 25.6C201.691 27.6367 200.328 29.36 198.604 30.77C196.881 32.1487 194.891 33.1983 192.635 33.919C190.379 34.6397 188.014 35 185.538 35H173.553V1.724ZM180.885 28.232H184.692C186.384 28.232 187.951 28.0597 189.392 27.715C190.865 27.3703 192.134 26.8063 193.199 26.023C194.265 25.2083 195.095 24.1587 195.69 22.874C196.317 21.558 196.63 19.96 196.63 18.08C196.63 16.4507 196.317 15.0407 195.69 13.85C195.095 12.628 194.28 11.6253 193.246 10.842C192.212 10.0587 190.99 9.479 189.58 9.103C188.202 8.69567 186.745 8.492 185.209 8.492H180.885V28.232ZM230.978 10.372C230.257 9.49466 229.364 8.821 228.299 8.351C227.265 7.881 226.058 7.646 224.68 7.646C223.301 7.646 222.016 7.91233 220.826 8.445C219.666 8.97767 218.648 9.72967 217.771 10.701C216.925 11.641 216.251 12.769 215.75 14.085C215.28 15.401 215.045 16.8267 215.045 18.362C215.045 19.9287 215.28 21.37 215.75 22.686C216.251 23.9707 216.925 25.0987 217.771 26.07C218.617 27.01 219.604 27.7463 220.732 28.279C221.891 28.8117 223.129 29.078 224.445 29.078C225.949 29.078 227.28 28.7647 228.44 28.138C229.599 27.5113 230.555 26.634 231.307 25.506L237.417 30.065C236.007 32.039 234.221 33.496 232.059 34.436C229.897 35.376 227.672 35.846 225.385 35.846C222.784 35.846 220.387 35.4387 218.194 34.624C216 33.8093 214.105 32.65 212.507 31.146C210.909 29.6107 209.655 27.762 208.747 25.6C207.869 23.438 207.431 21.0253 207.431 18.362C207.431 15.6987 207.869 13.286 208.747 11.124C209.655 8.962 210.909 7.129 212.507 5.625C214.105 4.08967 216 2.91467 218.194 2.1C220.387 1.28533 222.784 0.877999 225.385 0.877999C226.325 0.877999 227.296 0.971999 228.299 1.16C229.333 1.31667 230.335 1.583 231.307 1.959C232.309 2.335 233.265 2.83633 234.174 3.463C235.082 4.08967 235.897 4.85733 236.618 5.766L230.978 10.372ZM252.342 1.724H258.405L272.881 35H264.609L261.742 27.95H248.817L246.044 35H237.96L252.342 1.724ZM255.162 11.406L251.12 21.746H259.251L255.162 11.406ZM292.678 9.855C292.083 9.103 291.268 8.55467 290.234 8.21C289.232 7.834 288.276 7.646 287.367 7.646C286.835 7.646 286.286 7.70867 285.722 7.834C285.158 7.95933 284.626 8.163 284.124 8.445C283.623 8.69567 283.216 9.04033 282.902 9.479C282.589 9.91766 282.432 10.4503 282.432 11.077C282.432 12.0797 282.808 12.8473 283.56 13.38C284.312 13.9127 285.252 14.367 286.38 14.743C287.54 15.119 288.777 15.495 290.093 15.871C291.409 16.247 292.631 16.7797 293.759 17.469C294.919 18.1583 295.874 19.0827 296.626 20.242C297.378 21.4013 297.754 22.9523 297.754 24.895C297.754 26.7437 297.41 28.3573 296.72 29.736C296.031 31.1147 295.091 32.2583 293.9 33.167C292.741 34.0757 291.378 34.7493 289.811 35.188C288.276 35.6267 286.647 35.846 284.923 35.846C282.761 35.846 280.756 35.517 278.907 34.859C277.059 34.201 275.335 33.1357 273.737 31.663L278.954 25.929C279.706 26.9317 280.646 27.715 281.774 28.279C282.934 28.8117 284.124 29.078 285.346 29.078C285.942 29.078 286.537 29.0153 287.132 28.89C287.759 28.7333 288.307 28.514 288.777 28.232C289.279 27.95 289.67 27.5897 289.952 27.151C290.266 26.7123 290.422 26.1953 290.422 25.6C290.422 24.5973 290.031 23.814 289.247 23.25C288.495 22.6547 287.54 22.1533 286.38 21.746C285.221 21.3387 283.968 20.9313 282.62 20.524C281.273 20.1167 280.02 19.5683 278.86 18.879C277.701 18.1897 276.73 17.281 275.946 16.153C275.194 15.025 274.818 13.5367 274.818 11.688C274.818 9.902 275.163 8.33533 275.852 6.988C276.573 5.64066 277.513 4.51266 278.672 3.604C279.863 2.69533 281.226 2.02167 282.761 1.583C284.297 1.113 285.879 0.877999 287.508 0.877999C289.388 0.877999 291.206 1.14433 292.96 1.677C294.715 2.20966 296.297 3.10267 297.707 4.356L292.678 9.855ZM309.656 8.21H300.162V1.724H326.482V8.21H316.988V35H309.656V8.21ZM330.111 1.724H337.443V35H330.111V1.724ZM344.112 1.724H354.076L368.223 24.848H368.317V1.724H375.649V35H366.061L351.538 11.312H351.444V35H344.112V1.724ZM412.564 32.65C410.402 33.778 408.146 34.5927 405.796 35.094C403.446 35.5953 401.049 35.846 398.605 35.846C396.005 35.846 393.608 35.4387 391.414 34.624C389.221 33.8093 387.325 32.65 385.727 31.146C384.129 29.6107 382.876 27.762 381.967 25.6C381.09 23.438 380.651 21.0253 380.651 18.362C380.651 15.6987 381.09 13.286 381.967 11.124C382.876 8.962 384.129 7.129 385.727 5.625C387.325 4.08967 389.221 2.91467 391.414 2.1C393.608 1.28533 396.005 0.877999 398.605 0.877999C401.269 0.877999 403.713 1.207 405.937 1.865C408.193 2.49166 410.167 3.58833 411.859 5.155L406.689 10.795C405.687 9.761 404.559 8.97767 403.305 8.445C402.052 7.91233 400.485 7.646 398.605 7.646C397.039 7.646 395.613 7.91233 394.328 8.445C393.075 8.97767 391.994 9.72967 391.085 10.701C390.177 11.641 389.472 12.769 388.97 14.085C388.5 15.401 388.265 16.8267 388.265 18.362C388.265 19.9287 388.5 21.37 388.97 22.686C389.472 23.9707 390.177 25.0987 391.085 26.07C391.994 27.01 393.075 27.7463 394.328 28.279C395.613 28.8117 397.039 29.078 398.605 29.078C400.203 29.078 401.582 28.9057 402.741 28.561C403.901 28.185 404.825 27.809 405.514 27.433V22.028H399.545V15.26H412.564V32.65ZM433.678 1.724H442.185C443.783 1.724 445.365 1.818 446.932 2.006C448.53 2.194 449.955 2.60133 451.209 3.228C452.462 3.85467 453.48 4.779 454.264 6.001C455.047 7.19166 455.439 8.821 455.439 10.889C455.439 13.333 454.702 15.307 453.23 16.811C451.757 18.315 449.72 19.2707 447.12 19.678L456.567 35H451.726L442.702 20.054H437.626V35H433.678V1.724ZM437.626 16.388H441.151C442.247 16.388 443.375 16.3567 444.535 16.294C445.725 16.2313 446.806 16.0277 447.778 15.683C448.78 15.3383 449.595 14.8057 450.222 14.085C450.88 13.333 451.209 12.2677 451.209 10.889C451.209 9.69833 450.974 8.74267 450.504 8.022C450.034 7.30133 449.407 6.753 448.624 6.377C447.872 5.96967 447.01 5.70333 446.039 5.578C445.099 5.45266 444.143 5.39 443.172 5.39H437.626V16.388ZM473.22 1.724H476.933L491.08 35H486.474L483.09 26.822H466.452L463.021 35H458.556L473.22 1.724ZM475.006 6.8H474.912L468.003 23.156H481.586L475.006 6.8ZM495.503 1.724H500.485L519.755 29.36H519.849V1.724H523.797V35H518.815L499.545 7.364H499.451V35H495.503V1.724ZM560.378 32.744C558.466 33.8093 556.445 34.5927 554.315 35.094C552.215 35.5953 550.085 35.846 547.923 35.846C545.322 35.846 542.941 35.423 540.779 34.577C538.617 33.731 536.737 32.5403 535.139 31.005C533.572 29.4697 532.35 27.6367 531.473 25.506C530.595 23.344 530.157 20.9627 530.157 18.362C530.157 15.73 530.611 13.3487 531.52 11.218C532.46 9.056 533.744 7.223 535.374 5.719C537.003 4.18366 538.899 2.993 541.061 2.147C543.223 1.301 545.557 0.877999 548.064 0.877999C550.257 0.877999 552.356 1.207 554.362 1.865C556.398 2.523 558.216 3.651 559.814 5.249L556.853 8.351C555.725 7.129 554.346 6.189 552.717 5.531C551.119 4.873 549.474 4.544 547.782 4.544C545.87 4.544 544.1 4.88867 542.471 5.578C540.841 6.26733 539.416 7.223 538.194 8.445C537.003 9.667 536.063 11.124 535.374 12.816C534.716 14.508 534.387 16.3567 534.387 18.362C534.387 20.336 534.716 22.169 535.374 23.861C536.063 25.553 537.003 27.0257 538.194 28.279C539.416 29.501 540.873 30.4567 542.565 31.146C544.257 31.8353 546.121 32.18 548.158 32.18C549.505 32.18 550.915 32.0233 552.388 31.71C553.86 31.3653 555.208 30.8797 556.43 30.253V20.054H548.769V16.388H560.378V32.744ZM568.665 1.724H589.58V5.39H572.613V15.824H588.452V19.49H572.613V31.334H590.426V35H568.665V1.724Z" fill="white"/>
</svg>
