<?xml version="1.0" encoding="UTF-8"?><svg id="Layer_1" xmlns="http://www.w3.org/2000/svg" viewBox="0 0 590 58"><defs><style>.cls-1{fill:none;}.cls-2{fill:#fff;}.cls-3{fill:#ad9970;}</style></defs><rect class="cls-1" x="266" y="-266" width="58" height="590" transform="translate(266 324) rotate(-90)"/><path d="m506.07.83h-2.3v-.83h5.52v.83h-2.3v6.28h-.93V.83Zm4.5-.83h1.48l2.24,5.66,2.23-5.66h1.43v7.11h-.93V.88h-.03l-2.45,6.23h-.55l-2.45-6.23h-.03v6.23h-.93V0Z"/><path d="m102.31,10.07h9.09l6.04,24.27h.11l7.91-24.27h7.75l7.86,24.92h.11l6.36-24.92h8.45l-11.07,37.85h-7.43l-8.34-26.2h-.11l-8.34,26.2h-7.16l-11.23-37.85Z"/><path d="m159.36,10.07h8.34v37.85h-8.34V10.07Z"/><path d="m175.03,10.07h14.65c1.92,0,3.75.19,5.48.56,1.73.37,3.24,1,4.54,1.87,1.3.87,2.33,2.05,3.1,3.53.77,1.48,1.15,3.32,1.15,5.53,0,2.67-.69,4.95-2.08,6.82-1.39,1.87-3.42,3.06-6.1,3.56l9.62,15.99h-10l-7.91-15.13h-4.12v15.13h-8.34V10.07Zm8.34,15.67h4.92c.75,0,1.54-.03,2.38-.08.84-.05,1.59-.21,2.27-.48.68-.27,1.24-.69,1.68-1.26.44-.57.67-1.37.67-2.41,0-.96-.2-1.73-.59-2.3-.39-.57-.89-1.01-1.5-1.31-.61-.3-1.3-.51-2.09-.61-.78-.11-1.55-.16-2.3-.16h-5.45v8.61Z"/><path d="m209.73,10.07h25.72v7.7h-17.38v7.06h16.41v7.7h-16.41v7.7h18.34v7.7h-26.68V10.07Z"/><path d="m243.15,10.07h8.34v30.16h15.45v7.7h-23.79V10.07Z"/><path d="m271.59,10.07h25.72v7.7h-17.38v7.06h16.41v7.7h-16.41v7.7h18.34v7.7h-26.68V10.07Z"/><path d="m323.4,19.32c-.68-.86-1.6-1.49-2.75-1.9-1.16-.41-2.25-.62-3.29-.62-.61,0-1.23.07-1.87.21-.64.14-1.25.37-1.82.67s-1.03.7-1.39,1.2c-.36.5-.53,1.1-.53,1.82,0,1.14.43,2.01,1.28,2.62.86.61,1.93,1.12,3.24,1.55,1.3.43,2.7.86,4.2,1.28,1.5.43,2.9,1.03,4.2,1.82,1.3.78,2.38,1.84,3.24,3.15s1.28,3.08,1.28,5.29-.39,3.94-1.18,5.51c-.78,1.57-1.84,2.87-3.18,3.9-1.34,1.03-2.89,1.8-4.65,2.3-1.76.5-3.63.75-5.59.75-2.46,0-4.74-.37-6.84-1.12-2.1-.75-4.06-1.96-5.88-3.64l5.93-6.52c.86,1.14,1.93,2.02,3.24,2.65,1.3.62,2.65.94,4.04.94.68,0,1.36-.08,2.06-.24.69-.16,1.32-.4,1.87-.72.55-.32,1-.73,1.34-1.23.34-.5.51-1.09.51-1.76,0-1.14-.44-2.04-1.31-2.7-.87-.66-1.97-1.22-3.29-1.68-1.32-.46-2.75-.93-4.28-1.39-1.53-.46-2.96-1.09-4.28-1.87-1.32-.78-2.42-1.82-3.29-3.1-.87-1.28-1.31-2.98-1.31-5.08s.4-3.81,1.2-5.35c.8-1.53,1.87-2.82,3.21-3.85s2.88-1.81,4.62-2.33c1.75-.52,3.55-.77,5.4-.77,2.14,0,4.21.3,6.2.91,2,.61,3.8,1.62,5.4,3.05l-5.72,6.26Z"/><path d="m353.82,19.32c-.68-.86-1.6-1.49-2.75-1.9-1.16-.41-2.25-.62-3.29-.62-.61,0-1.23.07-1.87.21-.64.14-1.25.37-1.82.67s-1.03.7-1.39,1.2c-.36.5-.53,1.1-.53,1.82,0,1.14.43,2.01,1.28,2.62.86.61,1.93,1.12,3.24,1.55,1.3.43,2.7.86,4.2,1.28,1.5.43,2.9,1.03,4.2,1.82,1.3.78,2.38,1.84,3.24,3.15s1.28,3.08,1.28,5.29-.39,3.94-1.18,5.51c-.78,1.57-1.84,2.87-3.18,3.9-1.34,1.03-2.89,1.8-4.65,2.3-1.76.5-3.63.75-5.59.75-2.46,0-4.74-.37-6.84-1.12-2.1-.75-4.06-1.96-5.88-3.64l5.93-6.52c.86,1.14,1.93,2.02,3.24,2.65,1.3.62,2.65.94,4.04.94.68,0,1.36-.08,2.06-.24.69-.16,1.32-.4,1.87-.72.55-.32,1-.73,1.34-1.23.34-.5.51-1.09.51-1.76,0-1.14-.44-2.04-1.31-2.7-.87-.66-1.97-1.22-3.29-1.68-1.32-.46-2.75-.93-4.28-1.39-1.53-.46-2.96-1.09-4.28-1.87-1.32-.78-2.42-1.82-3.29-3.1-.87-1.28-1.31-2.98-1.31-5.08s.4-3.81,1.2-5.35c.8-1.53,1.87-2.82,3.21-3.85s2.88-1.81,4.62-2.33c1.75-.52,3.55-.77,5.4-.77,2.14,0,4.21.3,6.2.91,2,.61,3.8,1.62,5.4,3.05l-5.72,6.26Z"/><rect class="cls-3" x="369.92" width="127.79" height="58" rx="10.69" ry="10.69"/><path class="cls-2" d="m380.46,9.92h14.17c1.98,0,3.84.18,5.6.54,1.76.36,3.29.98,4.61,1.86,1.31.88,2.35,2.07,3.13,3.56.77,1.49,1.16,3.37,1.16,5.63s-.36,4.1-1.08,5.6c-.72,1.51-1.71,2.71-2.96,3.61-1.26.9-2.75,1.54-4.47,1.91s-3.59.57-5.6.57h-6.14v14.87h-8.41V9.92Zm8.41,16.17h5.6c.76,0,1.48-.07,2.18-.22.7-.14,1.33-.39,1.89-.73.56-.34,1.01-.81,1.35-1.4.34-.59.51-1.34.51-2.24,0-.97-.22-1.75-.67-2.34s-1.02-1.05-1.72-1.37-1.48-.53-2.34-.62c-.86-.09-1.69-.13-2.48-.13h-4.31v9.05Z"/><path class="cls-2" d="m414.41,9.92h14.76c1.94,0,3.78.19,5.52.57,1.74.38,3.27,1.01,4.58,1.89,1.31.88,2.35,2.07,3.13,3.56.77,1.49,1.16,3.35,1.16,5.58,0,2.69-.7,4.98-2.1,6.87s-3.45,3.08-6.14,3.58l9.7,16.11h-10.08l-7.98-15.25h-4.15v15.25h-8.41V9.92Zm8.41,15.79h4.96c.75,0,1.55-.03,2.4-.08.84-.05,1.61-.22,2.29-.48.68-.27,1.25-.69,1.7-1.27.45-.57.67-1.38.67-2.42,0-.97-.2-1.74-.59-2.32-.4-.57-.9-1.01-1.51-1.32-.61-.3-1.31-.51-2.1-.62-.79-.11-1.56-.16-2.32-.16h-5.5v8.68Z"/><path class="cls-2" d="m448.14,29c0-3.05.51-5.82,1.54-8.3,1.02-2.48,2.45-4.59,4.28-6.33,1.83-1.74,4-3.08,6.52-4.01,2.51-.93,5.26-1.4,8.25-1.4s5.73.47,8.25,1.4c2.51.93,4.69,2.27,6.52,4.01,1.83,1.74,3.26,3.85,4.29,6.33,1.02,2.48,1.54,5.25,1.54,8.3s-.51,5.82-1.54,8.3c-1.03,2.48-2.45,4.59-4.29,6.33-1.83,1.74-4.01,3.08-6.52,4.01-2.52.93-5.26,1.4-8.25,1.4s-5.73-.47-8.25-1.4c-2.51-.93-4.69-2.27-6.52-4.01-1.83-1.74-3.26-3.85-4.28-6.33-1.02-2.48-1.54-5.24-1.54-8.3Zm8.73,0c0,1.8.28,3.44.84,4.93.56,1.49,1.36,2.78,2.4,3.88,1.04,1.1,2.29,1.95,3.74,2.56,1.46.61,3.08.92,4.88.92s3.42-.3,4.88-.92c1.46-.61,2.7-1.46,3.74-2.56,1.04-1.1,1.84-2.39,2.4-3.88.56-1.49.84-3.13.84-4.93s-.28-3.39-.84-4.9-1.36-2.81-2.4-3.91c-1.04-1.1-2.29-1.95-3.74-2.56s-3.08-.92-4.88-.92-3.42.31-4.88.92-2.7,1.46-3.74,2.56c-1.04,1.1-1.84,2.4-2.4,3.91-.56,1.51-.84,3.14-.84,4.9Z"/></svg>